<?xml version="1.0" encoding="UTF-8"?>
<svg id="Layer_2" data-name="Layer 2" xmlns="http://www.w3.org/2000/svg" xmlns:xlink="http://www.w3.org/1999/xlink" viewBox="0 0 168.64 55.69">
  <defs>
    <style>
      .cls-1 {
        fill: #fff;
        stroke-width: 0px;
      }
    </style>
  </defs>
  <g id="PC">
    <g id="Hero">
      <a xlink:href="https://kuwait.cyberxglobal.com/">
        <g>
          <g>
            <polygon class="cls-1" points="32.57 25.15 35.9 20.99 40.95 27.86 34.39 27.86 32.57 25.15"/>
            <path class="cls-1" d="M15.75,44.75L41.74,7.72l.54-.11C40.26,5.96,31.98-.46,19.85.03,9.37.45,2.32,5.78.09,7.62c.33,5.36-1.03,14.25,1.41,23.96.86,3.44,2.53,5.88,3.45,7.42,5.33,8.99,13.08,14.05,18.19,16.68,2.64-1.41,7.01-4.18,10.94-9.09,3.97-4.97,5.71-9.89,6.5-12.79-1.49,2.88-4.07,7-8.34,10.94-3.3,3.04-6.57,5.02-9.09,6.29-3.28-2.12-10.03-6.51-13.95-15.04-5.28-11.48-3.4-22.45-3.94-26.44,2.74-1.91,7.23-4.48,13.86-5.6,10.89-1.84,19.46,2.09,22.49,3.66h-7.8l-4.1,5.67-3.56-5.67h-8.34l8,10.87-10.26,14.22.21,12.04h0ZM28.34,15.8c0-.71.57-1.28,1.28-1.28s1.28.57,1.28,1.28c0,.51-.31.96-.74,1.16l.74,3.71h-2.56l.52-3.84c-.32-.23-.52-.61-.52-1.03h0Z"/>
          </g>
          <g>
            <g>
              <path class="cls-1" d="M63.57,19.85v.21c0,.54-.44.97-.97.97h-8.42v-9.14h8.42c.54,0,.97.44.97.97h4.45v-2.2c0-2.06-1.67-3.73-3.73-3.73h-11.32c-2.02,0-3.66,1.64-3.66,3.66v11.39c0,2.02,1.64,3.66,3.66,3.66h12.23c1.55,0,2.81-1.26,2.81-2.81v-2.98h-4.45,0Z"/>
              <path class="cls-1" d="M69.78,6.94h4.91v7.37h7.68v4.4h-9.13c-1.91,0-3.46-1.55-3.46-3.46V6.94h0Z"/>
              <path class="cls-1" d="M83.47,6.94v14.05h-10.27v4.66h12.12c1.66,0,3.01-1.35,3.01-3.01V6.94h-4.85Z"/>
              <path class="cls-1" d="M90.35,6.94v18.71h14.67c2.12,0,3.84-1.72,3.84-3.84v-4.52l-1.07-1,1.07-1.34v-4.18c0-2.12-1.72-3.84-3.84-3.84h-14.67ZM103.9,14.34h-7.62v4.37h7.62v2.34h-8.75v-9.4h8.75v2.68Z"/>
              <rect class="cls-1" x="116.65" y="14.22" width="10.3" height="4.54"/>
              <path class="cls-1" d="M128.14,21.05v4.6h-14.01c-1.88,0-3.4-1.52-3.4-3.4v-11.36c0-2.18,1.77-3.95,3.95-3.95h13.46v5.05h-12.61v9.06h12.61Z"/>
              <polygon class="cls-1" points="149.87 6.94 155.51 6.94 159.25 12.67 162.93 6.94 168.64 6.94 162.26 16.3 168.52 25.65 163.02 25.65 159.25 20.18 155.51 25.65 149.87 25.65 156.44 16.3 149.87 6.94"/>
              <path class="cls-1" d="M130.09,6.94h14.79c1.96,0,3.56,1.59,3.56,3.56v5.02c0,1.79-1.45,3.25-3.25,3.25h-.4l3.64,6.89h-5.16l-3.92-6.89h-3.39v-4.54h7.48v-2.57h-8.63v14h-4.71V6.94h0Z"/>
            </g>
            <g>
              <path class="cls-1" d="M101.19,48.55h3.76s1.32-3.53,1.32-3.53c.06-.17.29-.2.39-.05l1.26,1.81c.78,1.11,2.05,1.77,3.41,1.77h3.72l8.24-19.23h-5.53l-5.51,13.68c-.13.31-.57.32-.7,0l-5.92-13.69h-5.6l3.56,8.83c.05.12.05.26,0,.39l-2.02,4.38c-.09.21-.39.2-.48,0l-5.86-13.59h-5.68l6.74,15.73c.3.57.87,1.5,1.89,2.32.29.24.59.43.87.6.65.38,1.39.58,2.15.58Z"/>
              <path class="cls-1" d="M124.12,48.55h-5.53l6.88-16.05c.83-1.93,2.73-3.19,4.83-3.19h4.38l7.85,19.23h-5.33l-1.04-2.75h-9.68l1.92-4.71h5.5l-2.62-6.54c-.19-.48-.87-.49-1.08-.02l-6.08,14.02Z"/>
              <rect class="cls-1" x="143.71" y="29.31" width="5.1" height="19.23"/>
              <polygon class="cls-1" points="168.64 29.51 168.64 34.22 162.35 34.22 162.35 48.74 157.25 48.74 157.25 34.22 150.97 34.22 150.97 29.51 168.64 29.51"/>
              <path class="cls-1" d="M83.26,29.12v14.33h-8.64v-14.33h-5.1v15.6c0,2.01,1.63,3.63,3.63,3.63h11.31c.63,0,1.25-.18,1.77-.54.18-.13.37-.27.57-.44.1-.09.2-.18.29-.27.58-.58.89-1.37.89-2.19v-15.78h-4.71Z"/>
              <path class="cls-1" d="M54.61,48.35h-5.3v-19.23h5.3v19.23ZM57.94,36.57h-2.36v4.71h2.36l4.67,7.07h5.73l-5.89-9.62,5.89-9.62h-5.66l-4.74,7.46Z"/>
            </g>
          </g>
        </g>
      </a>
    </g>
  </g>
</svg>