<?xml version="1.0" encoding="UTF-8"?>
<svg id="Layer_2" data-name="Layer 2" xmlns="http://www.w3.org/2000/svg" xmlns:xlink="http://www.w3.org/1999/xlink" viewBox="0 0 250 101.12">
  <defs>
    <style>
      .cls-1 {
        fill: url(#linear-gradient);
      }

      .cls-1, .cls-2, .cls-3, .cls-4 {
        stroke-width: 0px;
      }

      .cls-2 {
        fill: url(#linear-gradient-2);
      }

      .cls-3 {
        fill: url(#linear-gradient-3);
      }

      .cls-4 {
        fill: url(#New_Gradient_Swatch_3);
      }
    </style>
    <linearGradient id="linear-gradient" x1=".28" y1="50.67" x2="141.37" y2="50.67" gradientUnits="userSpaceOnUse">
      <stop offset="0" stop-color="#b37e10"/>
      <stop offset=".22" stop-color="#e3c15b"/>
      <stop offset=".33" stop-color="#f8dd7b"/>
      <stop offset=".52" stop-color="#fdf1a4"/>
      <stop offset=".73" stop-color="#f8dd7b"/>
      <stop offset="1" stop-color="#b37e10"/>
    </linearGradient>
    <linearGradient id="linear-gradient-2" x1="43.98" y1="78.6" x2="87.77" y2="34.81" gradientUnits="userSpaceOnUse">
      <stop offset="0" stop-color="#b37e10"/>
      <stop offset=".22" stop-color="#e3c15b"/>
      <stop offset=".33" stop-color="#f8dd7b"/>
      <stop offset=".52" stop-color="#fdf1a4"/>
      <stop offset=".73" stop-color="#f8dd7b"/>
      <stop offset="1" stop-color="#b37e10"/>
    </linearGradient>
    <linearGradient id="linear-gradient-3" x1="108.63" y1="50.45" x2="249.72" y2="50.45" xlink:href="#linear-gradient"/>
    <linearGradient id="New_Gradient_Swatch_3" data-name="New Gradient Swatch 3" x1="152.89" y1="25.24" x2="196.59" y2="68.95" gradientUnits="userSpaceOnUse">
      <stop offset=".03" stop-color="#b37e10"/>
      <stop offset=".12" stop-color="#b58114"/>
      <stop offset=".22" stop-color="#bd8c20"/>
      <stop offset=".32" stop-color="#cb9f35"/>
      <stop offset=".42" stop-color="#deb952"/>
      <stop offset=".52" stop-color="#f6da77"/>
      <stop offset=".53" stop-color="#f8dd7b"/>
      <stop offset=".74" stop-color="#f8dd7b"/>
      <stop offset=".88" stop-color="#b37e10"/>
      <stop offset="1" stop-color="#c6972f"/>
    </linearGradient>
  </defs>
  <g id="Awards">
    <g>
      <g>
        <path class="cls-1" d="M129.63,86.95s-1.99-1.61-1.99-1.61c-2.44-1.91-4.99-3.69-7.64-5.31.51-3.25,1.52-13.7-5.71-17.74-10.18-5.68-15.99-11.4-15.99-11.4-.7.53-.85,11.92,5.34,19.79.49.62,1,1.2,1.52,1.75-3.02-1.28-6.1-2.43-9.2-3.51.06-.68,1.12-14.24-7.79-17.87-10.8-4.4-17.26-9.36-17.26-9.36-.63.61.61,11.94,7.72,18.98,2.08,2.06,4.43,3.63,6.71,4.81-4.42-1.38-8.82-2.75-13.18-4.24-.86-.3-1.72-.6-2.59-.91.87-3.1,2.02-9.62-2.44-12.98-7.08-5.31-10.81-10.21-10.81-10.21-.61.33-2.16,8.92,1.6,15.48,1.08,1.89,2.45,3.46,3.87,4.76-3.92-1.59-7.78-3.35-11.49-5.32.14-.21.22-.34.22-.34,0,0-.15-.09-.41-.24,1.85-2.88,4.69-8.63,1.51-13.14-5.24-7.43-7.34-13.39-7.34-13.39-.7.13-4.93,8.04-3.33,15.64.71,3.37,2.33,6.23,3.92,8.4-2.77-1.71-5.44-3.58-8.01-5.6-.23-.18-.45-.37-.68-.55,1.84-1.95,5.61-6.74,3.38-11.25-3.42-6.9-4.4-12.17-4.4-12.17-.6.02-5.17,6.09-4.83,12.66.16,3.03,1.22,5.74,2.31,7.78-2.36-2.09-4.62-4.31-6.73-6.65,1.77-1.72,4.64-5.25,3.16-8.91-2.46-6.05-2.95-10.56-2.95-10.56-.51-.02-4.76,4.82-4.87,10.4-.03,1.47.2,2.86.54,4.13-1.48-1.89-2.9-3.82-4.23-5.83.06-.06.09-.09.09-.09,0,0-.03-.04-.09-.1,1.53-1.05,4.94-3.84,3.89-7.21-1.58-5.1-1.62-8.79-1.62-8.79-.43-.06-4.47,3.45-5.04,7.94-.2,1.57,0,3.09.33,4.39-.75-1.26-1.48-2.53-2.18-3.82-.27-2.27-1.18-7.03-4.15-9.09C4.08,2.41,2.94.51,2.94.51c-.32.21-.29,5.63,2.61,9.71,2.71,3.81,6.89,5.55,7.43,5.77.71,1.43,1.46,2.84,2.24,4.23-1.39-1-3.3-2.03-5.53-2.37-4.67-.71-9.35,2.34-9.41,2.79,0,0,3.69,1.09,8.36,4.14,3.01,1.96,6.65-.46,8.22-1.74,1.52,2.5,3.18,4.93,4.95,7.28-1.46-.87-3.24-1.65-5.24-1.98-5.5-.91-11.05,2.37-11.12,2.87,0,0,4.35,1.32,9.84,4.85,3.54,2.28,7.87-.35,9.73-1.73,1.64,1.93,3.35,3.79,5.14,5.58-1.65-.53-3.52-.91-5.5-.89-6.58.06-12.35,5-12.34,5.6,0,0,5.32.65,12.42,3.64,4.28,1.8,8.48-1.52,10.55-3.58.11.09.21.19.32.28,1.37,1.15,2.77,2.25,4.21,3.32-1.23-.1-2.52-.1-3.83.05-7.71.9-13.87,7.42-13.77,8.12,0,0,6.32.1,15.03,2.71,4.93,1.48,9.21-2.33,11.51-5.02,2.34,1.35,4.73,2.63,7.17,3.78,0,0,.16.08.37.17-.58.01-1.17.05-1.77.12-8.26.96-14.86,7.95-14.75,8.7,0,0,6.77.1,16.1,2.9,5.9,1.77,10.93-3.53,13.1-6.33.71.27,1.42.55,2.13.81,1.53.57,3.06,1.13,4.59,1.68-9.52,1.52-17.01,9.2-16.89,10.05,0,0,8.15.09,19.35,3.29,6.72,1.92,12.54-3.54,15.36-6.89.4.15.8.29,1.2.44l2.33.87,2.32.89c.9.35,1.8.7,2.7,1.05-.62.02-1.25.06-1.88.14-9.95,1.15-17.91,9.3-17.79,10.17,0,0,8.15.09,19.35,3.29,6.69,1.91,12.48-3.49,15.32-6.84.14.07.29.15.43.22,2.92,1.51,5.73,3.2,8.48,5l2.05,1.38c4.56,3.34,8.21,7.57,12.01,11.77.19.21,1.17-.22,1.33-.45-3.1-4.96-7.25-9.74-11.74-13.38ZM66.85,51.41c2.84,2.13.89,6.96.89,6.96l-6.01-11.8s1.77,2.32,5.12,4.84ZM35.24,28.55s.46,2.5,2.08,5.76c1.37,2.77-2.04,5.76-2.04,5.76,0,0-2.17-2.42-2.33-5.53-.16-3.11,2-5.99,2.29-6ZM16.05,15.88c.27-2.12,2.18-3.79,2.39-3.76,0,0,.02,1.75.77,4.16.63,2.05-2.18,3.63-2.18,3.63,0,0-1.25-1.91-.98-4.03ZM6.8,9.19c-1.38-1.93-1.39-4.5-1.24-4.6,0,0,.54.9,2.77,2.44,1.89,1.31,2.02,4.9,2.02,4.9,0,0-2.17-.81-3.55-2.74ZM10.2,23.12c-2.21-1.44-3.96-1.96-3.96-1.96.03-.21,2.25-1.66,4.46-1.32,2.21.33,3.77,2.13,3.77,2.13,0,0-2.4,2.37-4.27,1.15ZM26.3,20.65s.24,2.14,1.4,5c.98,2.43-2.08,4.74-2.08,4.74,0,0-1.68-2.18-1.62-4.82.06-2.64,2.07-4.94,2.31-4.92ZM17.47,34.22c-2.6-1.67-4.66-2.3-4.66-2.3.03-.24,2.66-1.79,5.27-1.36,2.61.43,4.44,2.49,4.44,2.49,0,0-2.84,2.59-5.04,1.17ZM26.53,45.82c-3.36-1.41-5.88-1.72-5.88-1.72,0-.28,2.73-2.62,5.84-2.65,3.12-.03,5.66,1.99,5.66,1.99,0,0-2.78,3.59-5.62,2.39ZM45.64,34.99s.99,2.83,3.48,6.34c2.1,2.98-1.33,7.09-1.33,7.09,0,0-2.97-2.42-3.72-6.02-.76-3.6,1.25-7.34,1.58-7.41ZM40.19,56.35c-4.12-1.24-7.12-1.28-7.12-1.28-.05-.33,2.87-3.42,6.52-3.85,3.65-.42,6.89,1.62,6.89,1.62,0,0-2.81,4.56-6.3,3.51ZM58.12,66.78c-4.42-1.32-7.63-1.37-7.63-1.37-.05-.36,3.07-3.67,6.99-4.12,3.91-.45,7.38,1.73,7.38,1.73,0,0-3.01,4.88-6.75,3.76ZM80.34,52.47s3.06,2.35,8.18,4.43c4.33,1.76,3.69,8.48,3.69,8.48,0,0-4.83-.58-8.2-3.92-3.37-3.34-3.96-8.7-3.66-8.99ZM80.79,75.17c-5.31-1.52-9.17-1.56-9.17-1.56-.06-.41,3.72-4.27,8.43-4.82,1.46-.17,2.87-.04,4.12.21,1.51.54,3.01,1.08,4.51,1.63.15.08.24.14.24.14,0,0-3.64,5.68-8.13,4.4ZM106.37,63.01s2.75,2.71,7.57,5.4c4.08,2.28,2.62,8.87,2.62,8.87,0,0-4.73-1.17-7.66-4.89-2.94-3.72-2.86-9.12-2.53-9.37ZM112.86,80.35s-3.64,5.68-8.13,4.4c-5.31-1.52-9.17-1.56-9.17-1.56-.06-.41,3.72-4.27,8.43-4.82,3.07-.36,5.9.59,7.5,1.29.27.13.55.26.82.39.35.18.55.3.55.3Z"/>
        <path class="cls-2" d="M140.22,101.12c-.17,0-.3-.05-.39-.15l-1.04-1.16c-3.5-3.89-6.81-7.56-10.93-10.57l-2.04-1.37c-3.05-1.99-5.82-3.62-8.46-4.98l-.23-.12c-2.95,3.43-8.75,8.68-15.47,6.76-11.04-3.15-19.2-3.28-19.28-3.28-.14,0-.26-.11-.28-.24-.02-.15.02-.39.47-.98,1.99-2.57,9.17-8.54,17.56-9.51.2-.02.41-.04.62-.06-.5-.2-1-.39-1.5-.58l-5.66-2.13c-2.95,3.45-8.77,8.76-15.53,6.83-11.04-3.15-19.2-3.28-19.28-3.28-.14,0-.26-.11-.28-.24-.15-1.05,6.88-8.27,16.1-10.18-1.2-.44-2.41-.88-3.61-1.33-.51-.19-1.02-.39-1.53-.58l-.41-.16c-2.5,3.17-7.44,8.01-13.27,6.26-9.18-2.75-15.95-2.89-16.02-2.89-.14,0-.26-.11-.28-.24-.02-.15.02-.38.47-.96,1.77-2.28,7.64-7.25,14.53-8.05.21-.02.43-.05.66-.06-2.05-.99-4.13-2.1-6.34-3.37-2.25,2.58-6.62,6.44-11.65,4.93-8.57-2.57-14.89-2.7-14.95-2.7-.14,0-.26-.11-.28-.24-.02-.14.02-.36.44-.91,1.65-2.13,7.14-6.78,13.58-7.53.95-.11,1.93-.15,2.94-.11-1.19-.91-2.36-1.83-3.47-2.76l-.13-.11c-2.21,2.16-6.38,5.26-10.67,3.46-6.98-2.93-12.29-3.61-12.34-3.62-.14-.02-.24-.13-.25-.27,0-.13.05-.32.47-.76,1.59-1.65,6.65-5.08,12.15-5.13,1.47-.02,2.98.19,4.53.6-1.46-1.49-2.87-3.04-4.21-4.62-1.91,1.37-6.25,3.89-9.83,1.59-5.39-3.47-9.72-4.81-9.77-4.82-.13-.04-.22-.17-.2-.31.02-.13.09-.28.52-.6,1.57-1.15,6.31-3.28,10.93-2.51,1.4.23,2.8.7,4.2,1.4-1.43-1.95-2.78-3.96-4.03-5.99-1.65,1.28-5.27,3.53-8.3,1.56C3.91,22.03.24,20.92.2,20.91c-.13-.04-.22-.17-.2-.31.02-.13.1-.3.56-.64,1.16-.88,5.08-3.01,9.18-2.4,1.57.24,3.14.83,4.68,1.77-.56-1.03-1.11-2.08-1.64-3.13-.81-.34-4.83-2.13-7.46-5.83C2.59,6.54,2.39,1.71,2.58.68c.03-.15.07-.32.21-.41.06-.04.14-.06.22-.04.08.02.14.06.18.13.01.02,1.18,1.9,5.76,5.07,2.99,2.07,3.96,6.65,4.27,9.24.42.77.85,1.55,1.32,2.35-.13-.99-.14-1.95-.02-2.87.45-3.5,3.07-6.67,4.62-7.84.44-.33.62-.36.74-.34.14.02.24.14.24.28,0,.04.06,3.71,1.61,8.71,1.06,3.4-2.13,6.2-3.78,7.38,0,.04,0,.09-.02.13,1.01,1.51,2.12,3.06,3.31,4.62-.19-1.01-.28-1.99-.26-2.94.1-4.68,3.07-8.94,4.49-10.27.39-.36.56-.4.68-.4.14,0,.25.11.27.25,0,.04.52,4.55,2.93,10.49,1.49,3.66-1.16,7.16-3.03,9.03,1.68,1.85,3.5,3.68,5.43,5.44-1-2.21-1.57-4.41-1.68-6.57-.29-5.49,2.82-10.75,4.37-12.44.41-.45.6-.51.73-.52.13-.01.26.09.29.23,0,.05,1.01,5.31,4.37,12.1.45.9.66,1.81.7,2.7.53-3.94,2.01-7.32,2.99-8.79.39-.58.58-.68.73-.71.13-.03.27.05.32.18.02.06,2.15,6.02,7.3,13.32,3.17,4.5.6,10.11-1.34,13.21.11.06.17.1.17.1.13.08.17.26.09.39,0,0-.02.03-.06.09,3.05,1.6,6.36,3.15,9.84,4.61-1.15-1.2-2.11-2.47-2.87-3.8-3.13-5.47-2.67-12.47-1.95-14.99.19-.65.34-.81.46-.88.12-.07.28-.03.36.08.04.05,3.79,4.93,10.75,10.16,1.92,1.44,4.79,5.04,2.62,13.03.78.28,1.56.55,2.34.82,3.53,1.21,7.14,2.35,10.69,3.46-1.68-1.06-3.2-2.25-4.52-3.56-6-5.95-7.97-15.08-7.95-18.33,0-.74.12-.95.23-1.06.1-.1.26-.11.37-.02.06.05,6.56,4.99,17.19,9.32,8.6,3.5,8.1,16.04,7.98,17.94,2.81.98,5.39,1.95,7.84,2.95-.24-.27-.46-.55-.68-.83-5.23-6.63-6.07-15.93-5.65-19.16.1-.74.24-.93.36-1.03.11-.08.27-.07.37.02.06.06,5.9,5.75,15.93,11.35,7.27,4.06,6.39,14.45,5.88,17.84,2.51,1.54,5.03,3.3,7.5,5.23l1.99,1.61h0c4.44,3.6,8.63,8.38,11.8,13.45.06.1.06.22,0,.31-.2.29-.92.6-1.32.63-.02,0-.04,0-.06,0ZM140.22,100.56c.15-.02.56-.15.78-.28-3.12-4.94-7.21-9.59-11.55-13.1l-1.99-1.61c-2.5-1.95-5.06-3.73-7.61-5.29-.1-.06-.15-.17-.13-.29.48-3.09,1.51-13.49-5.57-17.45-8.87-4.96-14.5-10-15.77-11.18-.48,1.8-.23,11.89,5.49,19.15.47.59.97,1.17,1.51,1.73.09.1.1.25.03.36-.08.11-.22.15-.34.1-2.85-1.2-5.85-2.35-9.18-3.5-.12-.04-.2-.16-.19-.29.05-.57,1.12-14.03-7.61-17.59-9.41-3.83-15.62-8.15-17.02-9.17-.25,1.84,1.22,11.83,7.79,18.33,1.85,1.83,4.08,3.43,6.64,4.76.13.07.19.22.13.36-.05.14-.2.21-.35.16l-.78-.24c-4.08-1.27-8.31-2.59-12.41-4-.86-.3-1.73-.6-2.59-.91-.14-.05-.22-.2-.18-.34.95-3.37,1.91-9.49-2.34-12.67-6.03-4.53-9.68-8.81-10.62-9.96-.58,1.48-1.56,8.96,1.82,14.87.95,1.66,2.24,3.24,3.81,4.69.1.09.12.24.05.36-.07.12-.22.16-.35.11-4.11-1.67-7.98-3.46-11.52-5.33-.07-.04-.12-.1-.14-.18-.02-.08,0-.16.04-.23.02-.03.04-.06.06-.09-.04-.03-.1-.06-.15-.09-.07-.04-.12-.1-.14-.18-.02-.08,0-.16.04-.22,1.88-2.92,4.58-8.48,1.51-12.83-4.48-6.35-6.69-11.7-7.24-13.1-1.03,1.24-4.37,8.24-2.92,15.12.59,2.81,1.89,5.6,3.87,8.29.08.11.07.26-.02.36-.09.1-.24.12-.36.05-2.74-1.7-5.45-3.59-8.04-5.61-.13-.1-.26-.21-.4-.32l-.29-.23c-.06-.05-.1-.12-.11-.2,0-.08.02-.16.08-.21,1.72-1.83,5.49-6.55,3.33-10.93-2.87-5.79-4.04-10.5-4.34-11.85-1.05,1.02-4.65,6.46-4.35,12.2.13,2.51.9,5.09,2.28,7.67.06.12.03.27-.07.36-.11.09-.26.08-.36-.01-2.42-2.14-4.69-4.39-6.75-6.67-.1-.11-.1-.29.01-.39,1.76-1.72,4.5-5.12,3.09-8.6-2.03-4.99-2.73-8.98-2.92-10.23-.98.88-4.26,5.16-4.36,9.97-.03,1.29.15,2.65.53,4.05.04.13-.03.27-.15.33-.12.06-.27.03-.35-.08-1.55-1.97-2.98-3.93-4.25-5.85-.05-.08-.06-.17-.03-.25-.01-.04-.02-.08-.01-.13,0-.08.05-.15.12-.2,1.47-1.01,4.77-3.7,3.78-6.9-1.26-4.07-1.55-7.29-1.62-8.42-.99.72-4,3.69-4.49,7.52-.17,1.35-.06,2.79.32,4.29.03.14-.04.28-.16.33-.13.05-.28,0-.35-.12-.53-.88-1.02-1.73-1.49-2.56.67,1.32,1.37,2.64,2.08,3.92.06.12.04.26-.06.35-.1.09-.24.1-.35.02-1.77-1.27-3.59-2.05-5.41-2.32-4.03-.61-7.89,1.6-8.87,2.38,1.1.38,4.27,1.59,8.02,4.04,2.88,1.88,6.48-.58,7.89-1.72.06-.05.15-.08.23-.06.08.01.15.06.19.13,1.5,2.47,3.16,4.91,4.93,7.25.08.11.08.26-.01.36-.09.1-.24.12-.36.06-1.71-1.01-3.44-1.67-5.14-1.95-4.68-.77-9.45,1.59-10.57,2.46,1.22.42,5,1.86,9.49,4.75,3.43,2.2,7.72-.47,9.41-1.72.12-.09.29-.07.38.04,1.62,1.91,3.34,3.78,5.12,5.56.09.09.11.24.04.35-.07.11-.2.16-.33.12-1.86-.6-3.67-.9-5.41-.88-5.7.05-10.86,3.92-11.89,5.1,1.4.22,6.15,1.1,12.08,3.6,4.11,1.73,8.18-1.46,10.24-3.52.11-.1.27-.11.38-.01l.32.28c1.33,1.12,2.75,2.23,4.2,3.31.1.08.14.21.1.33-.04.12-.16.19-.29.18-1.3-.11-2.57-.09-3.77.05-6.94.81-12.49,6.13-13.4,7.57,1.53.07,7.29.48,14.7,2.71,4.84,1.45,9.1-2.47,11.21-4.93.09-.1.24-.13.36-.06,2.5,1.45,4.84,2.68,7.15,3.77l.37.17c.12.06.18.19.16.31-.03.13-.14.22-.27.22-.67.02-1.22.05-1.74.11-7.38.86-13.45,6.65-14.38,8.15,1.59.07,7.79.5,15.78,2.9,5.62,1.68,10.43-3.18,12.79-6.23.08-.1.21-.13.32-.09l.61.23c.51.2,1.02.39,1.53.58,1.53.57,3.06,1.13,4.59,1.68.12.04.2.16.19.29-.01.13-.11.23-.24.25-8.67,1.38-15.56,7.91-16.54,9.5,1.77.07,9.3.5,19.03,3.29,6.55,1.87,12.25-3.46,15.07-6.8.08-.09.2-.12.32-.08l3.53,1.31,2.32.89c.9.35,1.8.7,2.7,1.06.12.05.2.18.18.31-.02.13-.13.23-.27.23-.71.03-1.3.07-1.86.13-9.14,1.06-16.44,7.95-17.43,9.62,1.76.07,9.29.5,19.04,3.29,6.52,1.87,12.21-3.43,15.02-6.75.09-.1.23-.13.35-.07l.43.22c2.65,1.37,5.43,3.01,8.51,5.01l2.05,1.38c4.17,3.06,7.65,6.92,11.02,10.65l1.01,1.12ZM36.61,42.81l.06.04c.13.1.26.21.39.31,2.2,1.72,4.49,3.35,6.81,4.84-1.58-2.4-2.64-4.87-3.17-7.36-.31-1.47-.4-2.97-.35-4.42-.6,2.79-2.53,5.25-3.74,6.58ZM3.09,1.18c-.07,1.48.39,5.64,2.7,8.88,2.68,3.76,6.84,5.49,7.3,5.67.03.01.06.03.08.05-.16-.3-.33-.59-.48-.88-.02-.03-.03-.07-.03-.1-.24-2-1.1-6.87-4.03-8.89C5.29,3.59,3.73,1.96,3.09,1.18ZM106.08,85.23c-.47,0-.94-.06-1.43-.2-5.21-1.49-9.05-1.55-9.09-1.55-.14,0-.26-.11-.28-.24-.02-.15.05-.32.25-.58.95-1.23,4.4-4.1,8.42-4.56,3.04-.35,5.84.52,7.65,1.32.28.13.56.26.83.39.37.19.58.31.58.31.07.04.11.1.13.18.02.07,0,.15-.04.22-.14.21-3.08,4.72-7.02,4.72ZM96.02,82.93c1.19.06,4.55.34,8.78,1.55,3.71,1.06,6.89-2.97,7.65-4.03-.08-.04-.17-.09-.27-.14-.27-.13-.54-.25-.81-.38-1.74-.76-4.44-1.61-7.35-1.27-3.86.45-7.16,3.25-7.99,4.27ZM116.57,77.56s-.05,0-.07,0c-.2-.05-4.86-1.23-7.82-4.99-2.51-3.18-2.91-7.64-2.71-9.19.04-.33.11-.5.23-.59.11-.08.27-.07.37.02.03.03,2.78,2.71,7.51,5.35,4.22,2.35,2.82,8.9,2.76,9.18-.02.07-.06.14-.13.18-.05.03-.1.04-.15.04ZM106.51,63.53c-.14,1.31.21,5.63,2.61,8.68,2.43,3.08,6.16,4.39,7.22,4.71.21-1.28.83-6.38-2.54-8.26-3.84-2.15-6.41-4.33-7.29-5.13ZM82.14,75.65c-.47,0-.94-.06-1.43-.2h0c-5.21-1.49-9.05-1.55-9.09-1.55-.14,0-.26-.11-.28-.24-.02-.15.05-.32.25-.58.95-1.23,4.4-4.1,8.42-4.56,1.33-.15,2.75-.08,4.21.22,1.55.55,3.05,1.1,4.55,1.64.2.1.29.16.29.16.07.04.11.1.13.18.02.07,0,.15-.04.22-.14.21-3.08,4.72-7.02,4.72ZM72.09,73.35c1.19.06,4.55.34,8.78,1.55h0c3.7,1.06,6.88-2.96,7.64-4.03-1.45-.52-2.94-1.06-4.43-1.6-1.36-.28-2.72-.35-4-.2-3.86.45-7.16,3.25-7.99,4.27ZM59.26,67.24c-.4,0-.81-.06-1.23-.18h0c-4.32-1.3-7.52-1.36-7.55-1.36-.14,0-.26-.11-.28-.24-.02-.15.05-.31.25-.57.85-1.1,3.67-3.49,6.98-3.87,3.97-.46,7.42,1.68,7.57,1.78.13.08.17.26.09.39-.11.18-2.55,4.06-5.84,4.06ZM50.96,65.15c1.05.07,3.8.33,7.24,1.36h0c3.01.9,5.6-2.45,6.26-3.39-.86-.47-3.78-1.92-6.95-1.55-3.15.37-5.81,2.67-6.55,3.58ZM92.2,65.67s-.02,0-.03,0c-.2-.02-4.97-.63-8.37-4-2.87-2.85-3.82-7.23-3.81-8.79,0-.33.05-.51.15-.61.1-.1.26-.11.37-.02.03.02,3.1,2.35,8.11,4.39,4.47,1.82,3.89,8.49,3.86,8.77,0,.08-.04.15-.1.19-.05.04-.11.06-.18.06ZM80.54,52.97c.02,1.32.89,5.56,3.65,8.29,2.79,2.76,6.65,3.6,7.74,3.79.06-1.3.04-6.44-3.53-7.89-4.07-1.66-6.89-3.51-7.86-4.2ZM67.74,58.65c-.11,0-.2-.06-.25-.15l-6.01-11.8c-.07-.13-.02-.29.1-.37.12-.08.29-.05.38.07.02.02,1.79,2.32,5.06,4.78,2.98,2.23,1.07,7.09.98,7.29-.04.1-.14.17-.25.18h-.01ZM62.98,48.4l4.7,9.24c.39-1.33,1.04-4.47-1.01-6.01h0c-1.6-1.2-2.84-2.35-3.7-3.23ZM41.26,56.79c-.37,0-.76-.05-1.15-.17h0c-4.03-1.21-7.01-1.27-7.04-1.27-.14,0-.26-.11-.28-.24-.02-.14.05-.3.24-.54.79-1.03,3.44-3.26,6.53-3.62,3.7-.42,6.94,1.58,7.08,1.66.13.08.17.26.09.39-.11.17-2.38,3.8-5.47,3.8ZM40.27,56.08c2.79.83,5.18-2.24,5.81-3.14-.82-.45-3.52-1.78-6.46-1.43-2.88.33-5.35,2.44-6.08,3.3,1.01.06,3.51.31,6.72,1.27h0ZM47.79,48.7c-.06,0-.13-.02-.18-.06-.12-.1-3.05-2.53-3.82-6.18-.64-3.05.64-6.26,1.36-7.34.17-.26.3-.37.44-.4.14-.03.27.05.32.18,0,.03,1.01,2.83,3.44,6.27,2.2,3.12-1.2,7.26-1.34,7.43-.06.07-.14.1-.22.1ZM45.55,35.53c-.59.96-1.8,3.97-1.2,6.81.61,2.9,2.72,5.04,3.41,5.67.66-.89,2.81-4.13,1.14-6.51-1.93-2.74-2.96-5.03-3.34-5.97ZM27.75,46.35c-.43,0-.88-.08-1.33-.27h0c-3.28-1.38-5.78-1.7-5.81-1.7-.14-.02-.24-.13-.25-.27,0-.14.07-.27.26-.47.77-.8,3.21-2.45,5.86-2.47.02,0,.05,0,.07,0,3.15,0,5.66,1.96,5.77,2.05.12.1.14.27.05.39-.1.13-2.16,2.75-4.63,2.75ZM26.64,45.56c2.21.93,4.45-1.34,5.1-2.08-.68-.47-2.77-1.75-5.18-1.75-.02,0-.04,0-.06,0-2.39.02-4.58,1.48-5.33,2.16.89.16,2.94.6,5.47,1.67h0ZM35.28,40.36c-.08,0-.15-.03-.21-.09-.09-.1-2.24-2.53-2.4-5.7-.14-2.65,1.36-5.19,2.11-6,.19-.21.32-.29.45-.29.12,0,.26.09.29.23,0,.02.48,2.5,2.06,5.69,1.45,2.93-1.96,5.97-2.1,6.1-.05.05-.12.07-.19.07ZM35.07,29.09c-.64.78-1.96,3.07-1.83,5.45.13,2.45,1.56,4.47,2.07,5.13.7-.7,2.82-3.07,1.76-5.22-1.22-2.47-1.79-4.48-2-5.36ZM18.94,34.93c-.55,0-1.1-.13-1.63-.47h0c-2.53-1.63-4.57-2.26-4.59-2.27-.13-.04-.22-.17-.2-.31.02-.13.1-.23.31-.38.76-.56,3.06-1.59,5.29-1.22,2.67.44,4.52,2.49,4.6,2.58.1.12.09.29-.02.4-.1.09-1.87,1.67-3.76,1.67ZM17.62,33.98c1.66,1.07,3.78-.41,4.47-.95-.54-.52-2.08-1.86-4.07-2.19-1.97-.32-3.89.53-4.65.98.77.28,2.36.95,4.24,2.16h0ZM25.62,30.67c-.08,0-.17-.04-.22-.11-.07-.09-1.74-2.29-1.68-5,.05-2.26,1.48-4.33,2.17-4.97.18-.17.31-.22.43-.23.14,0,.25.11.27.25,0,.02.25,2.14,1.38,4.93,1.05,2.6-2.04,4.97-2.17,5.07-.05.04-.11.06-.17.06ZM26.1,21.19c-.58.66-1.78,2.39-1.82,4.39-.04,2.01.98,3.77,1.4,4.4.66-.58,2.5-2.4,1.77-4.22-.84-2.08-1.2-3.76-1.34-4.57ZM11.39,23.76c-.45,0-.91-.11-1.35-.4h0c-2.15-1.4-3.87-1.92-3.89-1.93-.13-.04-.22-.17-.2-.31.02-.13.11-.24.32-.4.56-.43,2.46-1.47,4.46-1.16,2.29.35,3.88,2.15,3.95,2.23.1.11.09.28-.01.39-.08.08-1.63,1.59-3.27,1.59ZM10.35,22.89c1.36.89,3.11-.42,3.71-.93-.47-.46-1.76-1.59-3.41-1.84-1.57-.24-3.2.5-3.87.93.67.25,2,.81,3.57,1.83h0ZM17.03,20.19c-.09,0-.18-.05-.24-.13-.05-.08-1.3-2.02-1.02-4.23.25-1.92,1.7-3.4,2.24-3.81.21-.16.34-.22.47-.19.14.02.24.14.24.28,0,.02.03,1.74.76,4.08.69,2.24-2.19,3.89-2.31,3.96-.04.02-.09.04-.14.04ZM18.18,12.62c-.58.51-1.66,1.81-1.85,3.29h0c-.2,1.57.49,3.04.79,3.6.63-.42,2.27-1.68,1.81-3.15-.52-1.69-.7-3.05-.75-3.74ZM16.05,15.88h0,0ZM10.35,12.22s-.07,0-.1-.02c-.09-.03-2.27-.87-3.68-2.85h0c-1.24-1.74-1.45-4.04-1.32-4.71.02-.1.05-.22.16-.29.06-.04.14-.06.22-.04.08.02.14.06.18.13,0,0,.56.88,2.68,2.36,1.98,1.37,2.14,4.97,2.14,5.12,0,.09-.04.18-.12.24-.05.04-.11.05-.17.05ZM5.79,5.31c.05.85.32,2.43,1.24,3.71h0c.95,1.33,2.32,2.12,3,2.46-.11-.99-.5-3.27-1.86-4.22-1.24-.85-1.97-1.52-2.38-1.95Z"/>
      </g>
      <g>
        <path class="cls-3" d="M224.98,34.1c1.86,1.38,6.18,4.01,9.73,1.73,5.49-3.53,9.84-4.85,9.84-4.85-.07-.5-5.62-3.78-11.12-2.87-2,.33-3.78,1.12-5.24,1.98,1.77-2.34,3.43-4.77,4.95-7.28,1.57,1.28,5.22,3.7,8.22,1.74,4.67-3.05,8.36-4.14,8.36-4.14-.06-.45-4.74-3.5-9.41-2.79-2.22.34-4.13,1.37-5.53,2.37.78-1.39,1.53-2.8,2.24-4.23.54-.22,4.72-1.96,7.43-5.77,2.9-4.08,2.93-9.5,2.61-9.71,0,0-1.13,1.9-5.84,5.16-2.98,2.06-3.89,6.82-4.15,9.09-.7,1.29-1.43,2.56-2.18,3.82.34-1.31.53-2.82.33-4.39-.57-4.49-4.61-8-5.04-7.94,0,0-.04,3.69-1.62,8.79-1.05,3.38,2.36,6.16,3.89,7.21-.06.07-.09.1-.09.1,0,0,.03.03.09.09-1.33,2-2.75,3.94-4.23,5.83.35-1.27.57-2.66.54-4.13-.12-5.58-4.37-10.42-4.87-10.4,0,0-.5,4.51-2.95,10.56-1.48,3.66,1.39,7.19,3.16,8.91-2.11,2.34-4.37,4.56-6.73,6.65,1.09-2.05,2.15-4.76,2.31-7.78.35-6.57-4.23-12.64-4.83-12.66,0,0-.98,5.27-4.4,12.17-2.23,4.51,1.53,9.29,3.38,11.24-.23.18-.45.37-.68.55-2.57,2.01-5.24,3.88-8.01,5.6,1.59-2.16,3.21-5.03,3.92-8.4,1.6-7.6-2.63-15.51-3.33-15.64,0,0-2.1,5.96-7.34,13.39-3.19,4.52-.34,10.27,1.51,13.14-.27.15-.41.24-.41.24,0,0,.08.13.22.34-3.71,1.96-7.57,3.73-11.49,5.32,1.41-1.3,2.79-2.87,3.87-4.76,3.76-6.56,2.2-15.15,1.6-15.48,0,0-3.73,4.9-10.81,10.21-4.47,3.35-3.32,9.87-2.44,12.98-.86.31-1.72.61-2.59.91-4.35,1.49-8.76,2.86-13.18,4.24,2.28-1.18,4.63-2.74,6.71-4.81,7.11-7.05,8.36-18.37,7.72-18.98,0,0-6.46,4.96-17.26,9.36-8.91,3.63-7.85,17.19-7.79,17.87-3.1,1.07-6.18,2.23-9.2,3.51.53-.55,1.04-1.14,1.52-1.75,6.2-7.86,6.05-19.26,5.34-19.79,0,0-5.81,5.71-15.99,11.39-7.23,4.04-6.22,14.49-5.71,17.74-2.65,1.62-5.19,3.4-7.64,5.31,0,0-1.99,1.61-1.99,1.61-4.49,3.64-8.64,8.42-11.74,13.38.16.23,1.14.66,1.33.45,3.8-4.2,7.46-8.43,12.01-11.76l2.05-1.38c2.75-1.79,5.56-3.49,8.48-5,.14-.07.29-.15.43-.22,2.84,3.35,8.63,8.75,15.32,6.84,11.21-3.2,19.35-3.29,19.35-3.29.12-.87-7.85-9.02-17.79-10.17-.63-.07-1.26-.11-1.88-.14.9-.35,1.8-.71,2.7-1.05l2.32-.89,2.33-.87c.4-.15.8-.29,1.2-.44,2.82,3.35,8.64,8.81,15.36,6.89,11.21-3.2,19.35-3.29,19.35-3.29.12-.85-7.37-8.53-16.89-10.05,1.53-.56,3.06-1.12,4.59-1.68.71-.26,1.42-.54,2.13-.81,2.17,2.8,7.2,8.1,13.1,6.33,9.33-2.8,16.1-2.9,16.1-2.9.1-.75-6.49-7.74-14.75-8.7-.6-.07-1.18-.1-1.77-.12.2-.1.37-.17.37-.17,2.45-1.16,4.83-2.43,7.17-3.78,2.3,2.69,6.58,6.5,11.51,5.02,8.71-2.61,15.03-2.71,15.03-2.71.1-.7-6.06-7.22-13.77-8.12-1.31-.15-2.6-.15-3.83-.05,1.44-1.07,2.84-2.17,4.21-3.32.11-.09.21-.19.32-.28,2.07,2.06,6.27,5.38,10.55,3.58,7.1-2.99,12.42-3.64,12.42-3.64.02-.6-5.76-5.54-12.34-5.6-1.98-.02-3.85.36-5.5.89,1.79-1.79,3.5-3.65,5.14-5.58ZM239.31,19.61c2.21-.33,4.43,1.11,4.46,1.32,0,0-1.75.52-3.96,1.96-1.87,1.22-4.27-1.15-4.27-1.15,0,0,1.56-1.8,3.77-2.13ZM241.67,6.81c2.23-1.54,2.77-2.44,2.77-2.44.15.1.14,2.67-1.24,4.6-1.38,1.93-3.55,2.74-3.55,2.74,0,0,.13-3.6,2.02-4.9ZM230.79,16.05c.75-2.42.77-4.16.77-4.16.2-.03,2.12,1.63,2.39,3.76.27,2.12-.98,4.03-.98,4.03,0,0-2.81-1.59-2.18-3.63ZM237.19,31.7s-2.06.63-4.66,2.3c-2.2,1.42-5.04-1.17-5.04-1.17,0,0,1.83-2.05,4.44-2.49,2.61-.43,5.23,1.12,5.27,1.36ZM222.3,25.43c1.16-2.87,1.4-5,1.4-5,.24-.01,2.25,2.28,2.31,4.92.06,2.64-1.62,4.82-1.62,4.82,0,0-3.07-2.32-2.08-4.74ZM212.68,34.09c1.62-3.27,2.08-5.76,2.08-5.76.28,0,2.45,2.88,2.29,6-.16,3.11-2.33,5.53-2.33,5.53,0,0-3.41-2.99-2.04-5.76ZM183.15,51.18c3.35-2.52,5.12-4.84,5.12-4.84l-6.01,11.8s-1.95-4.83.89-6.96ZM136.06,68.19c4.82-2.69,7.57-5.4,7.57-5.4.33.25.4,5.65-2.53,9.37-2.94,3.72-7.66,4.89-7.66,4.89,0,0-1.46-6.59,2.62-8.87ZM154.44,82.97s-3.86.04-9.17,1.56c-4.49,1.28-8.13-4.4-8.13-4.4,0,0,.2-.12.55-.3.27-.13.55-.26.82-.39,1.61-.7,4.43-1.65,7.5-1.29,4.71.55,8.48,4.41,8.43,4.82ZM161.49,56.68c5.11-2.08,8.18-4.43,8.18-4.43.3.29-.29,5.65-3.66,8.99-3.37,3.34-8.2,3.92-8.2,3.92,0,0-.64-6.72,3.69-8.48ZM169.95,68.57c4.71.55,8.48,4.41,8.43,4.82,0,0-3.86.04-9.17,1.56-4.49,1.28-8.13-4.4-8.13-4.4,0,0,.09-.05.24-.14,1.5-.55,3-1.09,4.51-1.63,1.25-.26,2.66-.38,4.12-.21ZM199.51,65.18s-3.21.05-7.63,1.37c-3.74,1.12-6.75-3.76-6.75-3.76,0,0,3.47-2.19,7.38-1.73,3.91.45,7.04,3.76,6.99,4.12ZM200.88,41.11c2.48-3.52,3.48-6.34,3.48-6.34.33.06,2.33,3.81,1.58,7.41-.76,3.6-3.72,6.02-3.72,6.02,0,0-3.43-4.11-1.33-7.09ZM216.93,54.84s-2.99.05-7.12,1.28c-3.49,1.05-6.3-3.51-6.3-3.51,0,0,3.24-2.04,6.89-1.62,3.65.42,6.57,3.51,6.52,3.85ZM229.35,43.87s-2.52.31-5.88,1.72c-2.85,1.2-5.62-2.39-5.62-2.39,0,0,2.54-2.01,5.66-1.99,3.12.03,5.85,2.37,5.84,2.65Z"/>
        <path class="cls-4" d="M109.78,100.9s-.04,0-.06,0c-.4-.03-1.12-.34-1.32-.63-.06-.09-.07-.22,0-.31,3.17-5.07,7.36-9.85,11.8-13.45l1.99-1.61c2.47-1.93,4.99-3.69,7.51-5.23-.51-3.4-1.39-13.78,5.88-17.84,10.03-5.6,15.87-11.29,15.93-11.35.1-.1.26-.11.37-.02.12.09.26.29.36,1.03.42,3.23-.42,12.53-5.65,19.16-.22.28-.45.55-.68.83,2.44-1,5.02-1.98,7.84-2.95-.13-1.89-.62-14.44,7.98-17.94,10.64-4.33,17.13-9.27,17.19-9.32.11-.09.27-.08.37.02.11.11.23.32.23,1.06.02,3.25-1.95,12.38-7.95,18.32-1.32,1.31-2.83,2.5-4.52,3.56,3.54-1.11,7.16-2.25,10.69-3.46.78-.27,1.56-.54,2.34-.82-.96-3.55-1.79-9.72,2.62-13.02,6.96-5.23,10.72-10.11,10.75-10.16.08-.11.24-.14.36-.08.12.07.28.23.46.88.72,2.53,1.19,9.52-1.95,14.99-.76,1.33-1.72,2.6-2.87,3.8,3.49-1.46,6.8-3.01,9.84-4.61-.04-.06-.06-.09-.06-.09-.08-.13-.04-.31.09-.39,0,0,.06-.04.16-.1-1.95-3.1-4.51-8.72-1.34-13.21,5.15-7.31,7.28-13.26,7.3-13.32.05-.13.18-.21.32-.18.14.03.34.13.73.71.98,1.47,2.46,4.85,2.99,8.78.04-.89.26-1.8.7-2.7,3.36-6.79,4.36-12.04,4.37-12.1.02-.13.14-.23.28-.23h0c.13,0,.32.07.73.51,1.55,1.69,4.66,6.95,4.37,12.44-.11,2.16-.68,4.36-1.68,6.57,1.93-1.77,3.75-3.59,5.43-5.44-1.86-1.87-4.51-5.37-3.03-9.03,2.41-5.94,2.93-10.44,2.93-10.49.02-.14.13-.25.27-.25.12,0,.3.04.68.4,1.42,1.33,4.39,5.6,4.49,10.27.02.95-.07,1.94-.26,2.94,1.19-1.55,2.3-3.1,3.31-4.62-.02-.04-.02-.09-.02-.13-1.65-1.18-4.84-3.97-3.78-7.38,1.55-5,1.61-8.67,1.61-8.71,0-.14.1-.26.24-.28.12-.02.3,0,.75.35,1.11.84,4.11,3.89,4.61,7.83.12.92.11,1.88-.02,2.87.46-.8.9-1.57,1.32-2.35.31-2.59,1.28-7.17,4.27-9.24,4.58-3.17,5.75-5.05,5.76-5.07.04-.07.11-.11.18-.13.08-.02.15,0,.22.04.1.07.17.19.21.41.19,1.03-.01,5.87-2.74,9.7-2.63,3.69-6.65,5.49-7.46,5.83-.53,1.06-1.08,2.1-1.63,3.13,1.54-.94,3.11-1.54,4.68-1.77,4.1-.62,8.01,1.52,9.17,2.39.46.35.54.52.56.64.02.14-.07.27-.2.31-.04.01-3.71,1.12-8.29,4.11-3.03,1.97-6.65-.28-8.3-1.56-1.24,2.03-2.6,4.04-4.03,5.99,1.39-.7,2.8-1.16,4.2-1.4,4.61-.77,9.35,1.36,10.93,2.51.43.31.5.47.52.6.02.14-.06.27-.2.31-.04.01-4.38,1.35-9.77,4.82-3.59,2.3-7.93-.22-9.84-1.59-1.34,1.58-2.76,3.12-4.21,4.62,1.55-.41,3.07-.61,4.54-.6,5.5.05,10.56,3.48,12.15,5.13.42.44.47.63.47.76,0,.14-.11.25-.25.27-.05,0-5.37.68-12.34,3.62-4.29,1.8-8.45-1.3-10.67-3.46l-.13.11c-1.12.94-2.28,1.86-3.47,2.77,1.01-.04,1.99,0,2.94.11,6.43.75,11.92,5.39,13.58,7.52.43.55.46.77.44.92-.02.14-.14.24-.28.24-.06,0-6.39.13-14.95,2.7-5.03,1.51-9.4-2.35-11.65-4.93-2.21,1.27-4.29,2.38-6.34,3.37.23.02.45.04.66.06,6.89.8,12.76,5.77,14.53,8.05.45.58.49.81.47.96-.02.14-.14.24-.28.24-.07,0-6.84.14-16.02,2.89-5.84,1.75-10.77-3.09-13.27-6.26l-.3.11c-.55.21-1.09.42-1.64.62-1.2.45-2.41.89-3.61,1.33,9.21,1.9,16.24,9.13,16.1,10.18-.02.14-.14.24-.28.24-.08,0-8.24.12-19.28,3.28-6.75,1.93-12.58-3.37-15.53-6.83l-3.35,1.24-2.32.89c-.5.19-1,.39-1.5.58.21.02.42.04.62.06,8.39.97,15.58,6.94,17.57,9.51.46.59.49.83.47.98-.02.14-.14.24-.28.24-.08,0-8.24.12-19.28,3.28-6.72,1.92-12.52-3.33-15.47-6.76l-.23.12c-2.63,1.36-5.4,2.99-8.46,4.98l-2.05,1.38c-4.11,3.01-7.42,6.68-10.92,10.57l-1.04,1.15c-.09.1-.22.15-.39.15ZM109,100.05c.22.13.6.27.78.28l1.01-1.12c3.37-3.74,6.85-7.6,11.01-10.65l2.06-1.39c3.08-2.01,5.86-3.65,8.51-5.01l.43-.22c.12-.06.26-.03.35.07,2.81,3.32,8.5,8.61,15.02,6.75,9.77-2.79,17.32-3.23,19.05-3.29-.94-1.61-8.26-8.55-17.44-9.62-.55-.06-1.14-.11-1.86-.13-.13,0-.25-.1-.27-.24-.02-.13.05-.26.18-.31.9-.35,1.8-.71,2.7-1.06l5.86-2.2c.11-.04.24,0,.31.08,2.82,3.34,8.52,8.67,15.07,6.8,9.76-2.79,17.3-3.22,19.05-3.29-.93-1.53-7.84-8.11-16.55-9.5-.13-.02-.23-.12-.24-.25-.01-.13.06-.25.19-.29,1.53-.56,3.06-1.11,4.59-1.68.55-.2,1.09-.41,1.64-.62l.49-.19c.12-.04.25,0,.32.09,2.37,3.05,7.18,7.91,12.79,6.23,8.02-2.4,14.23-2.83,15.79-2.9-.88-1.43-6.97-7.28-14.4-8.15-.51-.06-1.07-.1-1.74-.11-.13,0-.24-.1-.27-.22-.03-.13.04-.26.16-.31l.37-.17c2.31-1.09,4.65-2.33,7.15-3.77.12-.07.27-.04.36.06,2.11,2.47,6.36,6.38,11.21,4.93,7.44-2.23,13.21-2.64,14.72-2.71-.85-1.37-6.43-6.76-13.42-7.57-1.2-.14-2.47-.15-3.77-.05-.12,0-.24-.06-.29-.18s0-.25.1-.33c1.44-1.07,2.86-2.19,4.2-3.31l.32-.28c.11-.1.28-.09.38.01,2.06,2.06,6.13,5.25,10.24,3.52,5.96-2.51,10.73-3.38,12.1-3.6-.95-1.11-6.16-5.04-11.91-5.09-1.71-.02-3.55.28-5.41.88-.13.04-.26-.01-.33-.12-.07-.11-.05-.26.04-.35,1.78-1.78,3.5-3.65,5.12-5.56.1-.11.27-.13.38-.04,1.69,1.25,5.98,3.93,9.41,1.72,4.53-2.91,8.33-4.34,9.52-4.76-1.04-.8-5.86-3.23-10.6-2.45-1.71.28-3.44.94-5.14,1.95-.12.07-.27.05-.36-.06-.09-.1-.1-.25-.01-.36,1.77-2.35,3.43-4.79,4.93-7.25.04-.07.11-.12.19-.13.08-.02.16,0,.23.06,1.41,1.14,5.01,3.6,7.89,1.72,3.78-2.47,6.97-3.68,8.04-4.05-.91-.72-4.81-2.99-8.9-2.37-1.81.27-3.63,1.05-5.4,2.32-.11.08-.25.07-.35-.02-.1-.09-.12-.23-.06-.35.71-1.27,1.41-2.58,2.08-3.91-.47.83-.96,1.68-1.49,2.56-.07.12-.22.17-.35.12-.13-.05-.2-.2-.16-.33.38-1.5.49-2.94.32-4.29-.49-3.84-3.5-6.8-4.49-7.52-.07,1.14-.35,4.35-1.62,8.43-.99,3.2,2.31,5.89,3.78,6.9.07.05.11.12.12.2,0,.04,0,.09-.01.13.03.08.02.18-.03.25-1.27,1.91-2.7,3.88-4.25,5.85-.08.11-.23.14-.35.08-.12-.06-.18-.2-.15-.33.38-1.39.56-2.75.53-4.05-.1-4.75-3.3-8.99-4.37-9.94-.19,1.28-.9,5.26-2.91,10.2-1.41,3.48,1.33,6.88,3.09,8.6.11.11.11.28.01.39-2.06,2.28-4.33,4.53-6.75,6.67-.1.09-.26.09-.36.01-.11-.09-.14-.24-.07-.36,1.38-2.58,2.14-5.16,2.28-7.67.3-5.69-3.24-11.08-4.35-12.18-.31,1.38-1.48,6.07-4.33,11.83-2.17,4.37,1.61,9.1,3.33,10.92.05.06.08.13.08.21,0,.08-.04.15-.11.2l-.27.22c-.14.11-.28.22-.42.33-2.59,2.03-5.29,3.92-8.04,5.61-.11.07-.26.05-.36-.05-.09-.1-.1-.25-.02-.36,1.98-2.69,3.28-5.48,3.87-8.29,1.44-6.84-1.85-13.79-2.93-15.11-.56,1.43-2.77,6.76-7.23,13.08-3.07,4.35-.37,9.9,1.51,12.83.04.07.06.15.04.22-.02.08-.07.14-.14.18-.06.03-.11.06-.15.09.02.03.04.06.06.09.05.07.06.15.04.23-.02.08-.07.14-.14.18-3.53,1.87-7.4,3.66-11.52,5.33-.13.05-.27,0-.35-.11-.07-.12-.05-.27.05-.36,1.58-1.45,2.86-3.03,3.81-4.69,3.36-5.87,2.41-13.29,1.81-14.85-.96,1.18-4.6,5.44-10.61,9.95-4.24,3.19-3.29,9.31-2.34,12.67.04.14-.04.29-.18.34-.86.31-1.73.62-2.59.91-4.13,1.42-8.38,2.74-12.5,4.03l-.69.21c-.14.05-.29-.03-.35-.16-.06-.14,0-.29.13-.36,2.56-1.33,4.8-2.93,6.64-4.76,6.54-6.48,8.03-16.4,7.78-18.33-1.43,1.03-7.62,5.34-17.01,9.16-8.73,3.56-7.66,17.01-7.61,17.59.01.13-.07.25-.19.29-3.34,1.16-6.34,2.3-9.18,3.5-.12.05-.27.01-.34-.1-.08-.11-.06-.26.03-.36.54-.57,1.05-1.15,1.51-1.73,5.7-7.23,5.97-17.26,5.48-19.14-1.29,1.2-6.91,6.23-15.76,11.17-7.09,3.96-6.06,14.36-5.57,17.45.02.11-.03.23-.13.29-2.55,1.56-5.11,3.34-7.61,5.29l-1.98,1.61c-4.33,3.51-8.43,8.16-11.55,13.1ZM209.65,36.01c.06,1.45-.04,2.94-.35,4.41-.52,2.49-1.59,4.96-3.17,7.36,2.32-1.49,4.61-3.11,6.81-4.84.14-.11.27-.22.41-.33l.04-.03c-1.21-1.33-3.13-3.79-3.74-6.58ZM246.91.95c-.64.78-2.2,2.42-5.53,4.72-2.93,2.03-3.8,6.9-4.03,8.9,0,.04-.01.07-.03.1-.16.29-.32.59-.48.88.02-.02.05-.04.08-.05.47-.18,4.63-1.92,7.31-5.67,2.31-3.24,2.77-7.4,2.69-8.88ZM143.92,85c-3.94,0-6.88-4.51-7.02-4.72-.04-.06-.05-.14-.04-.22.02-.07.06-.14.13-.18,0,0,.21-.12.57-.31.28-.13.56-.26.83-.39,1.82-.8,4.62-1.67,7.65-1.32,4.02.47,7.47,3.33,8.42,4.56.2.26.28.43.25.58-.02.14-.14.24-.28.24-.04,0-3.89.06-9.09,1.55-.49.14-.97.2-1.43.2ZM137.55,80.22c.76,1.06,3.94,5.09,7.65,4.03,4.23-1.21,7.59-1.49,8.78-1.55-.83-1.02-4.13-3.83-7.99-4.27-2.91-.34-5.61.5-7.35,1.27-.27.12-.54.25-.82.38-.1.05-.19.1-.26.14ZM154.44,82.97h0,0ZM133.43,77.34c-.05,0-.1-.01-.15-.04-.06-.04-.11-.11-.13-.18-.06-.28-1.45-6.82,2.76-9.18h0c4.73-2.64,7.48-5.33,7.51-5.35.1-.1.26-.11.37-.02.12.09.19.26.23.59.2,1.55-.2,6.01-2.71,9.19-2.96,3.76-7.62,4.94-7.82,4.99-.02,0-.05,0-.07,0ZM136.19,68.43c-3.37,1.88-2.75,6.98-2.54,8.26,1.06-.32,4.79-1.63,7.22-4.71,2.4-3.05,2.75-7.37,2.61-8.68-.88.8-3.45,2.98-7.29,5.12h0ZM167.86,75.42c-3.94,0-6.88-4.51-7.02-4.72-.04-.06-.05-.14-.04-.22.02-.07.06-.14.13-.18,0,0,.09-.05.25-.14,1.54-.56,3.04-1.11,4.55-1.65,1.5-.31,2.92-.38,4.25-.23h0c4.02.47,7.47,3.33,8.42,4.56.2.26.28.43.25.58-.02.14-.14.24-.28.24-.04,0-3.89.06-9.09,1.55-.49.14-.97.2-1.43.2ZM161.49,70.65c.77,1.07,3.94,5.08,7.64,4.02,4.23-1.21,7.59-1.49,8.78-1.55-.83-1.02-4.13-3.82-7.99-4.27h0c-1.28-.15-2.63-.08-4.03.21-1.44.52-2.92,1.05-4.39,1.59ZM190.74,67.01c-3.3,0-5.73-3.88-5.84-4.06-.08-.13-.04-.31.09-.39.15-.09,3.6-2.24,7.57-1.78,3.3.38,6.13,2.77,6.98,3.87.2.26.27.42.25.57-.02.14-.14.24-.28.24-.03,0-3.23.06-7.55,1.36-.42.13-.83.18-1.23.18ZM185.54,62.89c.66.95,3.24,4.3,6.26,3.39,3.44-1.03,6.18-1.3,7.24-1.36-.74-.91-3.4-3.21-6.55-3.58-3.17-.37-6.09,1.07-6.95,1.55ZM199.51,65.18h0,0ZM157.8,65.44c-.06,0-.13-.02-.18-.06-.06-.05-.1-.12-.1-.19-.03-.28-.61-6.95,3.86-8.77h0c5.01-2.04,8.08-4.37,8.11-4.39.11-.09.27-.08.37.02.11.1.15.28.16.61.01,1.56-.93,5.94-3.81,8.79-3.4,3.37-8.17,3.97-8.37,4-.01,0-.02,0-.03,0ZM161.49,56.68l.11.26c-3.57,1.45-3.59,6.59-3.53,7.89,1.09-.19,4.96-1.03,7.74-3.79,2.76-2.73,3.63-6.98,3.65-8.29-.98.68-3.79,2.54-7.86,4.2l-.11-.26ZM182.26,58.43h-.01c-.11,0-.21-.07-.25-.18-.08-.21-2-5.06.98-7.29h0c3.28-2.46,5.05-4.76,5.06-4.78.09-.12.25-.15.38-.07.12.08.17.24.1.37l-6.01,11.8c-.05.1-.15.15-.25.15ZM183.15,51.18l.17.23c-2.05,1.54-1.4,4.67-1.01,6.01l4.7-9.24c-.86.88-2.1,2.03-3.7,3.23l-.17-.23ZM208.74,56.57c-3.09,0-5.36-3.63-5.47-3.8-.08-.13-.04-.31.09-.39.14-.09,3.36-2.09,7.08-1.66,3.09.36,5.73,2.59,6.53,3.62.19.25.26.4.24.55-.02.14-.14.24-.28.24-.03,0-3.01.06-7.04,1.27-.39.12-.78.17-1.15.17ZM203.92,52.71c.63.9,3.02,3.98,5.81,3.14,3.21-.96,5.71-1.21,6.72-1.27-.72-.86-3.2-2.97-6.08-3.3-2.94-.34-5.64.98-6.46,1.43ZM216.93,54.84h0,0ZM202.21,48.48c-.08,0-.16-.03-.22-.1-.15-.17-3.54-4.31-1.34-7.43,2.43-3.44,3.43-6.25,3.44-6.27.05-.13.18-.21.32-.18.14.03.26.14.44.4.72,1.08,2,4.29,1.36,7.34-.77,3.66-3.7,6.08-3.82,6.18-.05.04-.12.06-.18.06ZM204.45,35.3c-.38.93-1.41,3.23-3.34,5.97h0c-1.68,2.38.48,5.62,1.14,6.51.69-.63,2.8-2.78,3.41-5.67.6-2.84-.61-5.85-1.2-6.81ZM200.88,41.11h0,0ZM222.25,46.13c-2.47,0-4.53-2.62-4.63-2.75-.1-.12-.07-.3.05-.39.11-.08,2.62-2.05,5.77-2.05.02,0,.04,0,.07,0,2.65.02,5.09,1.68,5.86,2.48.19.2.27.33.26.47,0,.14-.11.25-.25.27-.02,0-2.52.32-5.81,1.7-.45.19-.9.27-1.33.27ZM218.26,43.26c.65.74,2.89,3,5.1,2.08,2.54-1.07,4.58-1.51,5.47-1.67-.74-.68-2.94-2.14-5.33-2.16-2.47-.01-4.56,1.28-5.25,1.75ZM229.35,43.87h0,0ZM229.35,43.87h0,0ZM214.72,40.14c-.07,0-.13-.02-.19-.07-.15-.13-3.55-3.17-2.1-6.1,1.58-3.19,2.05-5.67,2.06-5.69.02-.14.15-.23.29-.23.14,0,.26.09.45.29.75.81,2.25,3.35,2.11,6-.17,3.18-2.31,5.6-2.4,5.7-.06.06-.13.09-.21.09ZM214.93,28.86c-.21.88-.78,2.89-2,5.36h0c-1.06,2.15,1.06,4.52,1.76,5.22.52-.66,1.94-2.69,2.07-5.13.13-2.38-1.19-4.67-1.83-5.45ZM212.68,34.09h0,0ZM231.06,34.71c-1.89,0-3.66-1.59-3.76-1.67-.11-.1-.12-.28-.02-.4.08-.09,1.93-2.13,4.6-2.58,2.24-.37,4.53.66,5.29,1.22.2.15.29.25.31.38.02.14-.06.27-.2.31-.02,0-2.06.64-4.59,2.27-.53.34-1.09.47-1.63.47ZM227.91,32.8c.69.54,2.82,2.02,4.47.96,1.89-1.21,3.47-1.88,4.24-2.16-.76-.45-2.68-1.3-4.65-.98-1.99.33-3.53,1.66-4.07,2.19ZM224.38,30.45c-.06,0-.12-.02-.17-.06-.13-.1-3.23-2.48-2.17-5.07h0c1.13-2.79,1.38-4.91,1.38-4.93.02-.14.13-.25.27-.25.13,0,.25.06.43.23.69.64,2.13,2.71,2.17,4.97.06,2.71-1.61,4.91-1.68,5-.06.07-.14.11-.22.11ZM222.56,25.53c-.74,1.82,1.1,3.64,1.77,4.22.41-.62,1.44-2.39,1.4-4.4-.04-2-1.24-3.73-1.82-4.39-.14.81-.5,2.49-1.34,4.57h0ZM238.61,23.53c-1.65,0-3.19-1.5-3.27-1.59-.11-.11-.11-.27-.01-.39.07-.08,1.66-1.88,3.95-2.23,1.99-.3,3.89.74,4.46,1.16.22.16.31.28.32.4.02.14-.07.27-.2.31-.02,0-1.74.53-3.89,1.93-.44.29-.9.4-1.35.4ZM235.94,21.73c.59.51,2.35,1.82,3.71.93,1.57-1.02,2.89-1.58,3.57-1.83-.67-.43-2.29-1.17-3.87-.93-1.65.25-2.94,1.38-3.41,1.84ZM232.97,19.97s-.1-.01-.14-.04c-.12-.07-3-1.72-2.31-3.96h0c.73-2.34.76-4.06.76-4.08,0-.14.1-.26.24-.28.13-.02.26.03.46.19.54.41,2,1.89,2.25,3.81.28,2.2-.97,4.14-1.02,4.23-.05.08-.14.13-.24.13ZM230.79,16.05l.27.08c-.46,1.48,1.18,2.73,1.81,3.15.31-.56.99-2.03.79-3.6-.19-1.49-1.27-2.78-1.85-3.29-.06.69-.23,2.05-.75,3.74l-.27-.08ZM239.65,11.99c-.06,0-.12-.02-.17-.05-.08-.06-.12-.15-.12-.24,0-.15.16-3.75,2.14-5.12h0c2.13-1.47,2.68-2.35,2.68-2.36.04-.07.11-.11.18-.13.08-.02.15,0,.22.04.11.07.14.19.16.29.12.67-.09,2.97-1.32,4.71-1.41,1.98-3.59,2.81-3.68,2.85-.03.01-.07.02-.1.02ZM241.83,7.04h0c-1.36.94-1.75,3.23-1.86,4.22.68-.33,2.05-1.12,3-2.46.92-1.29,1.19-2.86,1.24-3.71-.41.43-1.14,1.1-2.38,1.95h0Z"/>
      </g>
    </g>
  </g>
</svg>