<?xml version="1.0" encoding="utf-8"?>
<!-- Generator: Adobe Illustrator 25.4.1, SVG Export Plug-In . SVG Version: 6.00 Build 0)  -->
<svg version="1.1" id="Layer_1" xmlns="http://www.w3.org/2000/svg" xmlns:xlink="http://www.w3.org/1999/xlink" x="0px" y="0px"
	 viewBox="0 0 260.4 249" style="enable-background:new 0 0 260.4 249;" xml:space="preserve">
<style type="text/css">
	.st0{fill:#C1202A;}
	.st1{clip-path:url(#SVGID_00000134238341617914123690000008111768572902332824_);}
	.st2{fill:#EE3034;fill-opacity:0;}
	.st3{opacity:1.000000e-02;fill:#EE3034;enable-background:new    ;}
	.st4{opacity:2.000000e-02;fill:#EE3034;enable-background:new    ;}
	.st5{opacity:3.000000e-02;fill:#EE3034;enable-background:new    ;}
	.st6{opacity:4.000000e-02;fill:#EE3034;enable-background:new    ;}
	.st7{opacity:5.000000e-02;fill:#EE3034;enable-background:new    ;}
	.st8{opacity:6.000000e-02;fill:#EE3034;enable-background:new    ;}
	.st9{opacity:7.000000e-02;fill:#EE3034;enable-background:new    ;}
	.st10{opacity:8.000000e-02;fill:#EE3034;enable-background:new    ;}
	.st11{opacity:9.000000e-02;fill:#EE3034;enable-background:new    ;}
	.st12{opacity:0.1;fill:#EE3034;enable-background:new    ;}
	.st13{opacity:0.11;fill:#EE3034;enable-background:new    ;}
	.st14{opacity:0.12;fill:#EE3034;enable-background:new    ;}
	.st15{opacity:0.13;fill:#EE3034;enable-background:new    ;}
	.st16{opacity:0.14;fill:#EE3034;enable-background:new    ;}
	.st17{opacity:0.15;fill:#EE3034;enable-background:new    ;}
	.st18{opacity:0.16;fill:#EE3034;enable-background:new    ;}
	.st19{opacity:0.17;fill:#EE3034;enable-background:new    ;}
	.st20{opacity:0.18;fill:#EE3034;enable-background:new    ;}
	.st21{opacity:0.19;fill:#EE3034;enable-background:new    ;}
	.st22{opacity:0.2;fill:#EE3034;enable-background:new    ;}
	.st23{opacity:0.21;fill:#EE3034;enable-background:new    ;}
	.st24{opacity:0.22;fill:#EE3034;enable-background:new    ;}
	.st25{opacity:0.23;fill:#EE3034;enable-background:new    ;}
	.st26{opacity:0.24;fill:#EE3034;enable-background:new    ;}
	.st27{opacity:0.25;fill:#EE3034;enable-background:new    ;}
	.st28{opacity:0.26;fill:#EE3034;enable-background:new    ;}
	.st29{opacity:0.27;fill:#EE3034;enable-background:new    ;}
	.st30{opacity:0.28;fill:#EE3034;enable-background:new    ;}
	.st31{opacity:0.29;fill:#EE3034;enable-background:new    ;}
	.st32{opacity:0.3;fill:#EE3034;enable-background:new    ;}
	.st33{opacity:0.31;fill:#EE3034;enable-background:new    ;}
	.st34{opacity:0.32;fill:#EE3034;enable-background:new    ;}
	.st35{opacity:0.33;fill:#EE3034;enable-background:new    ;}
	.st36{opacity:0.34;fill:#EE3034;enable-background:new    ;}
	.st37{opacity:0.35;fill:#EE3034;enable-background:new    ;}
	.st38{opacity:0.36;fill:#EE3034;enable-background:new    ;}
	.st39{opacity:0.37;fill:#EE3034;enable-background:new    ;}
	.st40{opacity:0.38;fill:#EE3034;enable-background:new    ;}
	.st41{opacity:0.39;fill:#EE3034;enable-background:new    ;}
	.st42{opacity:0.4;fill:#EE3034;enable-background:new    ;}
	.st43{opacity:0.41;fill:#EE3034;enable-background:new    ;}
	.st44{opacity:0.42;fill:#EE3034;enable-background:new    ;}
	.st45{opacity:0.43;fill:#EE3034;enable-background:new    ;}
	.st46{opacity:0.44;fill:#EE3034;enable-background:new    ;}
	.st47{opacity:0.45;fill:#EE3034;enable-background:new    ;}
	.st48{opacity:0.46;fill:#EE3034;enable-background:new    ;}
	.st49{opacity:0.47;fill:#EE3034;enable-background:new    ;}
	.st50{opacity:0.48;fill:#EE3034;enable-background:new    ;}
	.st51{opacity:0.49;fill:#EE3034;enable-background:new    ;}
	.st52{opacity:0.5;fill:#EE3034;enable-background:new    ;}
	.st53{opacity:0.51;fill:#EE3034;enable-background:new    ;}
	.st54{opacity:0.52;fill:#EE3034;enable-background:new    ;}
	.st55{opacity:0.53;fill:#EE3034;enable-background:new    ;}
	.st56{opacity:0.54;fill:#EE3034;enable-background:new    ;}
	.st57{opacity:0.55;fill:#EE3034;enable-background:new    ;}
	.st58{opacity:0.56;fill:#EE3034;enable-background:new    ;}
	.st59{opacity:0.57;fill:#EE3034;enable-background:new    ;}
	.st60{opacity:0.58;fill:#EE3034;enable-background:new    ;}
	.st61{opacity:0.59;fill:#EE3034;enable-background:new    ;}
	.st62{opacity:0.6;fill:#EE3034;enable-background:new    ;}
	.st63{opacity:0.61;fill:#EE3034;enable-background:new    ;}
	.st64{opacity:0.62;fill:#EE3034;enable-background:new    ;}
	.st65{opacity:0.63;fill:#EE3034;enable-background:new    ;}
	.st66{opacity:0.64;fill:#EE3034;enable-background:new    ;}
	.st67{opacity:0.65;fill:#EE3034;enable-background:new    ;}
	.st68{opacity:0.66;fill:#EE3034;enable-background:new    ;}
	.st69{opacity:0.67;fill:#EE3034;enable-background:new    ;}
	.st70{opacity:0.68;fill:#EE3034;enable-background:new    ;}
	.st71{opacity:0.69;fill:#EE3034;enable-background:new    ;}
	.st72{opacity:0.7;fill:#EE3034;enable-background:new    ;}
	.st73{opacity:0.71;fill:#EE3034;enable-background:new    ;}
	.st74{opacity:0.72;fill:#EE3034;enable-background:new    ;}
	.st75{opacity:0.73;fill:#EE3034;enable-background:new    ;}
	.st76{opacity:0.74;fill:#EE3034;enable-background:new    ;}
	.st77{opacity:0.75;fill:#EE3034;enable-background:new    ;}
	.st78{opacity:0.76;fill:#EE3034;enable-background:new    ;}
	.st79{opacity:0.77;fill:#EE3034;enable-background:new    ;}
	.st80{opacity:0.78;fill:#EE3034;enable-background:new    ;}
	.st81{opacity:0.79;fill:#EE3034;enable-background:new    ;}
	.st82{opacity:0.8;fill:#EE3034;enable-background:new    ;}
	.st83{opacity:0.81;fill:#EE3034;enable-background:new    ;}
	.st84{opacity:0.82;fill:#EE3034;enable-background:new    ;}
	.st85{opacity:0.83;fill:#EE3034;enable-background:new    ;}
	.st86{opacity:0.84;fill:#EE3034;enable-background:new    ;}
	.st87{opacity:0.85;fill:#EE3034;enable-background:new    ;}
	.st88{opacity:0.86;fill:#EE3034;enable-background:new    ;}
	.st89{opacity:0.87;fill:#EE3034;enable-background:new    ;}
	.st90{opacity:0.88;fill:#EE3034;enable-background:new    ;}
	.st91{opacity:0.89;fill:#EE3034;enable-background:new    ;}
	.st92{opacity:0.9;fill:#EE3034;enable-background:new    ;}
	.st93{opacity:0.91;fill:#EE3034;enable-background:new    ;}
	.st94{opacity:0.92;fill:#EE3034;enable-background:new    ;}
	.st95{opacity:0.93;fill:#EE3034;enable-background:new    ;}
	.st96{opacity:0.94;fill:#EE3034;enable-background:new    ;}
	.st97{opacity:0.95;fill:#EE3034;enable-background:new    ;}
	.st98{opacity:0.96;fill:#EE3034;enable-background:new    ;}
	.st99{opacity:0.97;fill:#EE3034;enable-background:new    ;}
	.st100{opacity:0.98;fill:#EE3034;enable-background:new    ;}
	.st101{opacity:0.99;fill:#EE3034;enable-background:new    ;}
	.st102{fill:#EE3034;}
</style>
<path class="st0" d="M245.9,5.6H228L223.6,0h-91.3l-5,5.6H0.6L0,227.8L15,249h245.4V26.2L245.9,5.6z M259.3,246.7H207l-1.7-2.7H17.9
	l-13.6-19v-114l-2.7-1.9V7l43-0.1l1.9,2.5h197.1l13.2,20.2V63l2.4,3.2V246.7z"/>
<g id="Reflection">
	<g>
		<defs>
			<polygon id="SVGID_1_" points="251.8,237.9 21.9,237.9 8.6,217.7 8.6,16.1 239.8,16.1 251.8,34.3 			"/>
		</defs>
		<clipPath id="SVGID_00000150796415483854065150000014482859243728325525_">
			<use xlink:href="#SVGID_1_"  style="overflow:visible;"/>
		</clipPath>
		<g style="clip-path:url(#SVGID_00000150796415483854065150000014482859243728325525_);">
			<ellipse class="st2" cx="251.5" cy="127" rx="2.7" ry="61.7"/>
			<ellipse class="st2" cx="251.5" cy="127" rx="2.7" ry="61.4"/>
			<ellipse class="st3" cx="251.5" cy="127" rx="2.7" ry="61.2"/>
			<ellipse class="st3" cx="251.5" cy="127" rx="2.6" ry="60.9"/>
			<ellipse class="st4" cx="251.5" cy="127" rx="2.6" ry="60.7"/>
			<ellipse class="st4" cx="251.5" cy="127" rx="2.6" ry="60.4"/>
			<ellipse class="st5" cx="251.5" cy="127" rx="2.6" ry="60.2"/>
			<ellipse class="st5" cx="251.5" cy="127" rx="2.6" ry="59.9"/>
			<ellipse class="st6" cx="251.5" cy="127" rx="2.6" ry="59.7"/>
			<ellipse class="st6" cx="251.5" cy="127" rx="2.6" ry="59.4"/>
			<ellipse class="st7" cx="251.5" cy="127" rx="2.6" ry="59.2"/>
			<ellipse class="st7" cx="251.5" cy="127" rx="2.6" ry="58.9"/>
			<ellipse class="st8" cx="251.5" cy="127" rx="2.6" ry="58.7"/>
			<ellipse class="st8" cx="251.5" cy="127" rx="2.5" ry="58.5"/>
			<ellipse class="st9" cx="251.5" cy="127" rx="2.5" ry="58.2"/>
			<ellipse class="st9" cx="251.5" cy="127" rx="2.5" ry="58"/>
			<ellipse class="st10" cx="251.5" cy="127" rx="2.5" ry="57.7"/>
			<ellipse class="st10" cx="251.5" cy="127" rx="2.5" ry="57.5"/>
			<ellipse class="st11" cx="251.5" cy="127" rx="2.5" ry="57.2"/>
			<ellipse class="st11" cx="251.5" cy="127" rx="2.5" ry="57"/>
			<ellipse class="st12" cx="251.5" cy="127" rx="2.5" ry="56.7"/>
			<ellipse class="st12" cx="251.5" cy="127" rx="2.5" ry="56.5"/>
			<ellipse class="st13" cx="251.5" cy="127" rx="2.5" ry="56.2"/>
			<ellipse class="st13" cx="251.5" cy="127" rx="2.4" ry="56"/>
			<ellipse class="st14" cx="251.5" cy="127" rx="2.4" ry="55.8"/>
			<ellipse class="st14" cx="251.5" cy="127" rx="2.4" ry="55.5"/>
			<ellipse class="st15" cx="251.5" cy="127" rx="2.4" ry="55.3"/>
			<ellipse class="st15" cx="251.5" cy="127" rx="2.4" ry="55"/>
			<ellipse class="st16" cx="251.5" cy="127" rx="2.4" ry="54.8"/>
			<ellipse class="st16" cx="251.5" cy="127" rx="2.4" ry="54.5"/>
			<ellipse class="st17" cx="251.5" cy="127" rx="2.4" ry="54.3"/>
			<ellipse class="st17" cx="251.5" cy="127" rx="2.4" ry="54"/>
			<ellipse class="st18" cx="251.5" cy="127" rx="2.3" ry="53.8"/>
			<ellipse class="st18" cx="251.5" cy="127" rx="2.3" ry="53.6"/>
			<ellipse class="st19" cx="251.5" cy="127" rx="2.3" ry="53.3"/>
			<ellipse class="st19" cx="251.5" cy="127" rx="2.3" ry="53.1"/>
			<ellipse class="st20" cx="251.5" cy="127" rx="2.3" ry="52.8"/>
			<ellipse class="st20" cx="251.5" cy="127" rx="2.3" ry="52.6"/>
			<ellipse class="st21" cx="251.5" cy="127" rx="2.3" ry="52.3"/>
			<ellipse class="st21" cx="251.5" cy="127" rx="2.3" ry="52.1"/>
			<ellipse class="st22" cx="251.5" cy="127" rx="2.3" ry="51.8"/>
			<ellipse class="st22" cx="251.5" cy="127" rx="2.2" ry="51.6"/>
			<ellipse class="st23" cx="251.5" cy="127" rx="2.2" ry="51.3"/>
			<ellipse class="st23" cx="251.5" cy="127" rx="2.2" ry="51.1"/>
			<ellipse class="st24" cx="251.5" cy="127" rx="2.2" ry="50.8"/>
			<ellipse class="st24" cx="251.5" cy="127" rx="2.2" ry="50.6"/>
			<ellipse class="st25" cx="251.5" cy="127" rx="2.2" ry="50.4"/>
			<ellipse class="st25" cx="251.5" cy="127" rx="2.2" ry="50.1"/>
			<ellipse class="st26" cx="251.5" cy="127" rx="2.2" ry="49.9"/>
			<ellipse class="st26" cx="251.5" cy="127" rx="2.2" ry="49.6"/>
			<ellipse class="st27" cx="251.5" cy="127" rx="2.1" ry="49.4"/>
			<ellipse class="st27" cx="251.5" cy="127" rx="2.1" ry="49.1"/>
			<ellipse class="st28" cx="251.5" cy="127" rx="2.1" ry="48.9"/>
			<ellipse class="st28" cx="251.5" cy="127" rx="2.1" ry="48.6"/>
			<ellipse class="st29" cx="251.5" cy="127" rx="2.1" ry="48.4"/>
			<ellipse class="st29" cx="251.5" cy="127" rx="2.1" ry="48.2"/>
			<ellipse class="st30" cx="251.5" cy="127" rx="2.1" ry="47.9"/>
			<ellipse class="st30" cx="251.5" cy="127" rx="2.1" ry="47.7"/>
			<ellipse class="st31" cx="251.5" cy="127" rx="2.1" ry="47.4"/>
			<ellipse class="st31" cx="251.5" cy="127" rx="2" ry="47.2"/>
			<ellipse class="st32" cx="251.5" cy="127" rx="2" ry="46.9"/>
			<ellipse class="st32" cx="251.5" cy="127" rx="2" ry="46.7"/>
			<ellipse class="st33" cx="251.5" cy="127" rx="2" ry="46.4"/>
			<ellipse class="st33" cx="251.5" cy="127" rx="2" ry="46.2"/>
			<ellipse class="st34" cx="251.5" cy="127" rx="2" ry="45.9"/>
			<ellipse class="st34" cx="251.5" cy="127" rx="2" ry="45.7"/>
			<ellipse class="st35" cx="251.5" cy="127" rx="2" ry="45.4"/>
			<ellipse class="st35" cx="251.5" cy="127" rx="2" ry="45.2"/>
			<ellipse class="st36" cx="251.5" cy="127" rx="2" ry="45"/>
			<ellipse class="st36" cx="251.5" cy="127" rx="2" ry="44.7"/>
			<ellipse class="st37" cx="251.5" cy="127" rx="1.9" ry="44.5"/>
			<ellipse class="st37" cx="251.5" cy="127" rx="1.9" ry="44.2"/>
			<ellipse class="st38" cx="251.5" cy="127" rx="1.9" ry="44"/>
			<ellipse class="st38" cx="251.5" cy="127" rx="1.9" ry="43.7"/>
			<ellipse class="st39" cx="251.5" cy="127" rx="1.9" ry="43.5"/>
			<ellipse class="st39" cx="251.5" cy="127" rx="1.9" ry="43.2"/>
			<ellipse class="st40" cx="251.5" cy="127" rx="1.9" ry="43"/>
			<ellipse class="st40" cx="251.5" cy="127" rx="1.9" ry="42.8"/>
			<ellipse class="st41" cx="251.5" cy="127" rx="1.9" ry="42.5"/>
			<ellipse class="st41" cx="251.5" cy="127" rx="1.8" ry="42.3"/>
			<ellipse class="st42" cx="251.5" cy="127" rx="1.8" ry="42"/>
			<ellipse class="st42" cx="251.5" cy="127" rx="1.8" ry="41.8"/>
			<ellipse class="st43" cx="251.5" cy="127" rx="1.8" ry="41.5"/>
			<ellipse class="st43" cx="251.5" cy="127" rx="1.8" ry="41.3"/>
			<ellipse class="st44" cx="251.5" cy="127" rx="1.8" ry="41"/>
			<ellipse class="st44" cx="251.5" cy="127" rx="1.8" ry="40.8"/>
			<ellipse class="st45" cx="251.5" cy="127" rx="1.8" ry="40.6"/>
			<ellipse class="st45" cx="251.5" cy="127" rx="1.8" ry="40.3"/>
			<ellipse class="st46" cx="251.5" cy="127" rx="1.7" ry="40.1"/>
			<ellipse class="st46" cx="251.5" cy="127" rx="1.7" ry="39.8"/>
			<ellipse class="st47" cx="251.5" cy="127" rx="1.7" ry="39.6"/>
			<ellipse class="st47" cx="251.5" cy="127" rx="1.7" ry="39.3"/>
			<ellipse class="st48" cx="251.5" cy="127" rx="1.7" ry="39.1"/>
			<ellipse class="st48" cx="251.5" cy="127" rx="1.7" ry="38.8"/>
			<ellipse class="st49" cx="251.5" cy="127" rx="1.7" ry="38.6"/>
			<ellipse class="st49" cx="251.5" cy="127" rx="1.7" ry="38.3"/>
			<ellipse class="st50" cx="251.5" cy="127" rx="1.7" ry="38.1"/>
			<ellipse class="st50" cx="251.5" cy="127" rx="1.6" ry="37.8"/>
			<ellipse class="st51" cx="251.5" cy="127" rx="1.6" ry="37.6"/>
			<ellipse class="st51" cx="251.5" cy="127" rx="1.6" ry="37.4"/>
			<ellipse class="st52" cx="251.5" cy="127" rx="1.6" ry="37.1"/>
			<ellipse class="st52" cx="251.5" cy="127" rx="1.6" ry="36.9"/>
			<ellipse class="st53" cx="251.5" cy="127" rx="1.6" ry="36.6"/>
			<ellipse class="st53" cx="251.5" cy="127" rx="1.6" ry="36.4"/>
			<ellipse class="st54" cx="251.5" cy="127" rx="1.6" ry="36.1"/>
			<ellipse class="st54" cx="251.5" cy="127" rx="1.6" ry="35.9"/>
			<ellipse class="st55" cx="251.5" cy="127" rx="1.5" ry="35.6"/>
			<ellipse class="st55" cx="251.5" cy="127" rx="1.5" ry="35.4"/>
			<ellipse class="st56" cx="251.5" cy="127" rx="1.5" ry="35.2"/>
			<ellipse class="st56" cx="251.5" cy="127" rx="1.5" ry="34.9"/>
			<ellipse class="st57" cx="251.5" cy="127" rx="1.5" ry="34.7"/>
			<ellipse class="st57" cx="251.5" cy="127" rx="1.5" ry="34.4"/>
			<ellipse class="st58" cx="251.5" cy="127" rx="1.5" ry="34.2"/>
			<ellipse class="st58" cx="251.5" cy="127" rx="1.5" ry="33.9"/>
			<ellipse class="st59" cx="251.5" cy="127" rx="1.5" ry="33.7"/>
			<ellipse class="st59" cx="251.5" cy="127" rx="1.5" ry="33.4"/>
			<ellipse class="st60" cx="251.5" cy="127" rx="1.5" ry="33.2"/>
			<ellipse class="st60" cx="251.5" cy="127" rx="1.4" ry="32.9"/>
			<ellipse class="st61" cx="251.5" cy="127" rx="1.4" ry="32.7"/>
			<ellipse class="st61" cx="251.5" cy="127" rx="1.4" ry="32.4"/>
			<ellipse class="st62" cx="251.5" cy="127" rx="1.4" ry="32.2"/>
			<ellipse class="st62" cx="251.5" cy="127" rx="1.4" ry="32"/>
			<ellipse class="st63" cx="251.5" cy="127" rx="1.4" ry="31.7"/>
			<ellipse class="st63" cx="251.5" cy="127" rx="1.4" ry="31.5"/>
			<ellipse class="st64" cx="251.5" cy="127" rx="1.4" ry="31.2"/>
			<ellipse class="st64" cx="251.5" cy="127" rx="1.4" ry="31"/>
			<ellipse class="st65" cx="251.5" cy="127" rx="1.3" ry="30.7"/>
			<ellipse class="st65" cx="251.5" cy="127" rx="1.3" ry="30.5"/>
			<ellipse class="st66" cx="251.5" cy="127" rx="1.3" ry="30.2"/>
			<ellipse class="st66" cx="251.5" cy="127" rx="1.3" ry="30"/>
			<ellipse class="st67" cx="251.5" cy="127" rx="1.3" ry="29.8"/>
			<ellipse class="st67" cx="251.5" cy="127" rx="1.3" ry="29.5"/>
			<ellipse class="st68" cx="251.5" cy="127" rx="1.3" ry="29.3"/>
			<ellipse class="st68" cx="251.5" cy="127" rx="1.3" ry="29"/>
			<ellipse class="st69" cx="251.5" cy="127" rx="1.2" ry="28.8"/>
			<ellipse class="st69" cx="251.5" cy="127" rx="1.2" ry="28.5"/>
			<ellipse class="st70" cx="251.5" cy="127" rx="1.2" ry="28.3"/>
			<ellipse class="st70" cx="251.5" cy="127" rx="1.2" ry="28"/>
			<ellipse class="st71" cx="251.5" cy="127" rx="1.2" ry="27.8"/>
			<ellipse class="st71" cx="251.5" cy="127" rx="1.2" ry="27.5"/>
			<ellipse class="st72" cx="251.5" cy="127" rx="1.2" ry="27.3"/>
			<ellipse class="st72" cx="251.5" cy="127" rx="1.2" ry="27.1"/>
			<ellipse class="st73" cx="251.5" cy="127" rx="1.2" ry="26.8"/>
			<ellipse class="st73" cx="251.5" cy="127" rx="1.2" ry="26.6"/>
			<ellipse class="st74" cx="251.5" cy="127" rx="1.1" ry="26.3"/>
			<ellipse class="st74" cx="251.5" cy="127" rx="1.1" ry="26.1"/>
			<ellipse class="st75" cx="251.5" cy="127" rx="1.1" ry="25.8"/>
			<ellipse class="st75" cx="251.5" cy="127" rx="1.1" ry="25.6"/>
			<ellipse class="st76" cx="251.5" cy="127" rx="1.1" ry="25.3"/>
			<ellipse class="st76" cx="251.5" cy="127" rx="1.1" ry="25.1"/>
			<ellipse class="st77" cx="251.5" cy="127" rx="1.1" ry="24.8"/>
			<ellipse class="st77" cx="251.5" cy="127" rx="1.1" ry="24.6"/>
			<ellipse class="st78" cx="251.5" cy="127" rx="1.1" ry="24.4"/>
			<ellipse class="st78" cx="251.5" cy="127" rx="1" ry="24.1"/>
			<ellipse class="st79" cx="251.5" cy="127" rx="1" ry="23.9"/>
			<ellipse class="st79" cx="251.5" cy="127" rx="1" ry="23.6"/>
			<ellipse class="st80" cx="251.5" cy="127" rx="1" ry="23.4"/>
			<ellipse class="st80" cx="251.5" cy="127" rx="1" ry="23.1"/>
			<ellipse class="st81" cx="251.5" cy="127" rx="1" ry="22.9"/>
			<ellipse class="st81" cx="251.5" cy="127" rx="1" ry="22.6"/>
			<ellipse class="st82" cx="251.5" cy="127" rx="1" ry="22.4"/>
			<ellipse class="st82" cx="251.5" cy="127" rx="1" ry="22.1"/>
			<ellipse class="st83" cx="251.5" cy="127" rx="1" ry="21.9"/>
			<ellipse class="st83" cx="251.5" cy="127" rx="0.9" ry="21.6"/>
			<ellipse class="st84" cx="251.5" cy="127" rx="0.9" ry="21.4"/>
			<ellipse class="st84" cx="251.5" cy="127" rx="0.9" ry="21.2"/>
			<ellipse class="st85" cx="251.5" cy="127" rx="0.9" ry="20.9"/>
			<ellipse class="st85" cx="251.5" cy="127" rx="0.9" ry="20.7"/>
			<ellipse class="st86" cx="251.5" cy="127" rx="0.9" ry="20.4"/>
			<ellipse class="st86" cx="251.5" cy="127" rx="0.9" ry="20.2"/>
			<ellipse class="st87" cx="251.5" cy="127" rx="0.9" ry="19.9"/>
			<ellipse class="st87" cx="251.5" cy="127" rx="0.9" ry="19.7"/>
			<ellipse class="st88" cx="251.5" cy="127" rx="0.9" ry="19.4"/>
			<ellipse class="st88" cx="251.5" cy="127" rx="0.8" ry="19.2"/>
			<ellipse class="st89" cx="251.5" cy="127" rx="0.8" ry="18.9"/>
			<ellipse class="st89" cx="251.5" cy="127" rx="0.8" ry="18.7"/>
			<ellipse class="st90" cx="251.5" cy="127" rx="0.8" ry="18.5"/>
			<ellipse class="st90" cx="251.5" cy="127" rx="0.8" ry="18.2"/>
			<ellipse class="st91" cx="251.5" cy="127" rx="0.8" ry="18"/>
			<ellipse class="st91" cx="251.5" cy="127" rx="0.8" ry="17.7"/>
			<ellipse class="st92" cx="251.5" cy="127" rx="0.8" ry="17.5"/>
			<ellipse class="st92" cx="251.5" cy="127" rx="0.8" ry="17.2"/>
			<ellipse class="st93" cx="251.5" cy="127" rx="0.7" ry="17"/>
			<ellipse class="st93" cx="251.5" cy="127" rx="0.7" ry="16.8"/>
			<ellipse class="st94" cx="251.5" cy="127" rx="0.7" ry="16.5"/>
			<ellipse class="st94" cx="251.5" cy="127" rx="0.7" ry="16.3"/>
			<ellipse class="st95" cx="251.5" cy="127" rx="0.7" ry="16"/>
			<ellipse class="st95" cx="251.5" cy="127" rx="0.7" ry="15.8"/>
			<ellipse class="st96" cx="251.5" cy="127" rx="0.7" ry="15.5"/>
			<ellipse class="st96" cx="251.5" cy="127" rx="0.7" ry="15.3"/>
			<ellipse class="st97" cx="251.5" cy="127" rx="0.6" ry="15"/>
			<ellipse class="st97" cx="251.5" cy="127" rx="0.6" ry="14.8"/>
			<ellipse class="st98" cx="251.5" cy="127" rx="0.6" ry="14.5"/>
			<ellipse class="st98" cx="251.5" cy="127" rx="0.6" ry="14.3"/>
			<ellipse class="st99" cx="251.5" cy="127" rx="0.6" ry="14.1"/>
			<ellipse class="st99" cx="251.5" cy="127" rx="0.6" ry="13.8"/>
			<ellipse class="st100" cx="251.5" cy="127" rx="0.6" ry="13.6"/>
			<ellipse class="st100" cx="251.5" cy="127" rx="0.6" ry="13.3"/>
			<ellipse class="st101" cx="251.5" cy="127" rx="0.6" ry="13.1"/>
			<ellipse class="st101" cx="251.5" cy="127" rx="0.6" ry="12.8"/>
			<ellipse class="st102" cx="251.5" cy="127" rx="0.5" ry="12.6"/>
			<ellipse class="st102" cx="251.5" cy="127" rx="0.5" ry="12.3"/>
			<ellipse class="st2" cx="8.7" cy="127" rx="2.7" ry="61.7"/>
			<ellipse class="st2" cx="8.7" cy="127" rx="2.7" ry="61.4"/>
			<ellipse class="st3" cx="8.7" cy="127" rx="2.7" ry="61.2"/>
			<ellipse class="st3" cx="8.7" cy="127" rx="2.7" ry="60.9"/>
			<ellipse class="st4" cx="8.7" cy="127" rx="2.6" ry="60.7"/>
			<ellipse class="st4" cx="8.7" cy="127" rx="2.6" ry="60.4"/>
			<ellipse class="st5" cx="8.7" cy="127" rx="2.6" ry="60.2"/>
			<ellipse class="st5" cx="8.7" cy="127" rx="2.6" ry="59.9"/>
			<ellipse class="st6" cx="8.7" cy="127" rx="2.6" ry="59.7"/>
			<ellipse class="st6" cx="8.7" cy="127" rx="2.6" ry="59.4"/>
			<ellipse class="st7" cx="8.7" cy="127" rx="2.6" ry="59.2"/>
			<ellipse class="st7" cx="8.7" cy="127" rx="2.6" ry="58.9"/>
			<ellipse class="st8" cx="8.7" cy="127" rx="2.6" ry="58.7"/>
			<ellipse class="st8" cx="8.7" cy="127" rx="2.5" ry="58.5"/>
			<ellipse class="st9" cx="8.7" cy="127" rx="2.5" ry="58.2"/>
			<ellipse class="st9" cx="8.7" cy="127" rx="2.5" ry="58"/>
			<ellipse class="st10" cx="8.7" cy="127" rx="2.5" ry="57.7"/>
			<ellipse class="st10" cx="8.7" cy="127" rx="2.5" ry="57.5"/>
			<ellipse class="st11" cx="8.7" cy="127" rx="2.5" ry="57.2"/>
			<ellipse class="st11" cx="8.7" cy="127" rx="2.5" ry="57"/>
			<ellipse class="st12" cx="8.7" cy="127" rx="2.5" ry="56.7"/>
			<ellipse class="st12" cx="8.7" cy="127" rx="2.5" ry="56.5"/>
			<ellipse class="st13" cx="8.7" cy="127" rx="2.5" ry="56.2"/>
			<ellipse class="st13" cx="8.7" cy="127" rx="2.4" ry="56"/>
			<ellipse class="st14" cx="8.7" cy="127" rx="2.4" ry="55.8"/>
			<ellipse class="st14" cx="8.7" cy="127" rx="2.4" ry="55.5"/>
			<ellipse class="st15" cx="8.7" cy="127" rx="2.4" ry="55.3"/>
			<ellipse class="st15" cx="8.7" cy="127" rx="2.4" ry="55"/>
			<ellipse class="st16" cx="8.7" cy="127" rx="2.4" ry="54.8"/>
			<ellipse class="st16" cx="8.7" cy="127" rx="2.4" ry="54.5"/>
			<ellipse class="st17" cx="8.7" cy="127" rx="2.4" ry="54.3"/>
			<ellipse class="st17" cx="8.7" cy="127" rx="2.3" ry="54"/>
			<ellipse class="st18" cx="8.7" cy="127" rx="2.3" ry="53.8"/>
			<ellipse class="st18" cx="8.7" cy="127" rx="2.3" ry="53.6"/>
			<ellipse class="st19" cx="8.7" cy="127" rx="2.3" ry="53.3"/>
			<ellipse class="st19" cx="8.7" cy="127" rx="2.3" ry="53.1"/>
			<ellipse class="st20" cx="8.7" cy="127" rx="2.3" ry="52.8"/>
			<ellipse class="st20" cx="8.7" cy="127" rx="2.3" ry="52.6"/>
			<ellipse class="st21" cx="8.7" cy="127" rx="2.3" ry="52.3"/>
			<ellipse class="st21" cx="8.7" cy="127" rx="2.3" ry="52.1"/>
			<ellipse class="st22" cx="8.7" cy="127" rx="2.3" ry="51.8"/>
			<ellipse class="st22" cx="8.7" cy="127" rx="2.2" ry="51.6"/>
			<ellipse class="st23" cx="8.7" cy="127" rx="2.2" ry="51.3"/>
			<ellipse class="st23" cx="8.7" cy="127" rx="2.2" ry="51.1"/>
			<ellipse class="st24" cx="8.7" cy="127" rx="2.2" ry="50.8"/>
			<ellipse class="st24" cx="8.7" cy="127" rx="2.2" ry="50.6"/>
			<ellipse class="st25" cx="8.7" cy="127" rx="2.2" ry="50.4"/>
			<ellipse class="st25" cx="8.7" cy="127" rx="2.2" ry="50.1"/>
			<ellipse class="st26" cx="8.7" cy="127" rx="2.2" ry="49.9"/>
			<ellipse class="st26" cx="8.7" cy="127" rx="2.2" ry="49.6"/>
			<ellipse class="st27" cx="8.7" cy="127" rx="2.2" ry="49.4"/>
			<ellipse class="st27" cx="8.7" cy="127" rx="2.1" ry="49.1"/>
			<ellipse class="st28" cx="8.7" cy="127" rx="2.1" ry="48.9"/>
			<ellipse class="st28" cx="8.7" cy="127" rx="2.1" ry="48.6"/>
			<ellipse class="st29" cx="8.7" cy="127" rx="2.1" ry="48.4"/>
			<ellipse class="st29" cx="8.7" cy="127" rx="2.1" ry="48.2"/>
			<ellipse class="st30" cx="8.7" cy="127" rx="2.1" ry="47.9"/>
			<ellipse class="st30" cx="8.7" cy="127" rx="2.1" ry="47.7"/>
			<ellipse class="st31" cx="8.7" cy="127" rx="2.1" ry="47.4"/>
			<ellipse class="st31" cx="8.7" cy="127" rx="2" ry="47.2"/>
			<ellipse class="st32" cx="8.7" cy="127" rx="2" ry="46.9"/>
			<ellipse class="st32" cx="8.7" cy="127" rx="2" ry="46.7"/>
			<ellipse class="st33" cx="8.7" cy="127" rx="2" ry="46.4"/>
			<ellipse class="st33" cx="8.7" cy="127" rx="2" ry="46.2"/>
			<ellipse class="st34" cx="8.7" cy="127" rx="2" ry="45.9"/>
			<ellipse class="st34" cx="8.7" cy="127" rx="2" ry="45.7"/>
			<ellipse class="st35" cx="8.7" cy="127" rx="2" ry="45.4"/>
			<ellipse class="st35" cx="8.7" cy="127" rx="2" ry="45.2"/>
			<ellipse class="st36" cx="8.7" cy="127" rx="2" ry="45"/>
			<ellipse class="st36" cx="8.7" cy="127" rx="2" ry="44.7"/>
			<ellipse class="st37" cx="8.7" cy="127" rx="1.9" ry="44.5"/>
			<ellipse class="st37" cx="8.7" cy="127" rx="1.9" ry="44.2"/>
			<ellipse class="st38" cx="8.7" cy="127" rx="1.9" ry="44"/>
			<ellipse class="st38" cx="8.7" cy="127" rx="1.9" ry="43.7"/>
			<ellipse class="st39" cx="8.7" cy="127" rx="1.9" ry="43.5"/>
			<ellipse class="st39" cx="8.7" cy="127" rx="1.9" ry="43.2"/>
			<ellipse class="st40" cx="8.7" cy="127" rx="1.9" ry="43"/>
			<ellipse class="st40" cx="8.7" cy="127" rx="1.9" ry="42.8"/>
			<ellipse class="st41" cx="8.7" cy="127" rx="1.8" ry="42.5"/>
			<ellipse class="st41" cx="8.7" cy="127" rx="1.8" ry="42.3"/>
			<ellipse class="st42" cx="8.7" cy="127" rx="1.8" ry="42"/>
			<ellipse class="st42" cx="8.7" cy="127" rx="1.8" ry="41.8"/>
			<ellipse class="st43" cx="8.7" cy="127" rx="1.8" ry="41.5"/>
			<ellipse class="st43" cx="8.7" cy="127" rx="1.8" ry="41.3"/>
			<ellipse class="st44" cx="8.7" cy="127" rx="1.8" ry="41"/>
			<ellipse class="st44" cx="8.7" cy="127" rx="1.8" ry="40.8"/>
			<ellipse class="st45" cx="8.7" cy="127" rx="1.8" ry="40.6"/>
			<ellipse class="st45" cx="8.7" cy="127" rx="1.8" ry="40.3"/>
			<ellipse class="st46" cx="8.7" cy="127" rx="1.7" ry="40.1"/>
			<ellipse class="st46" cx="8.7" cy="127" rx="1.7" ry="39.8"/>
			<ellipse class="st47" cx="8.7" cy="127" rx="1.7" ry="39.6"/>
			<ellipse class="st47" cx="8.7" cy="127" rx="1.7" ry="39.3"/>
			<ellipse class="st48" cx="8.7" cy="127" rx="1.7" ry="39.1"/>
			<ellipse class="st48" cx="8.7" cy="127" rx="1.7" ry="38.8"/>
			<ellipse class="st49" cx="8.7" cy="127" rx="1.7" ry="38.6"/>
			<ellipse class="st49" cx="8.7" cy="127" rx="1.7" ry="38.3"/>
			<ellipse class="st50" cx="8.7" cy="127" rx="1.7" ry="38.1"/>
			<ellipse class="st50" cx="8.7" cy="127" rx="1.7" ry="37.8"/>
			<ellipse class="st51" cx="8.7" cy="127" rx="1.6" ry="37.6"/>
			<ellipse class="st51" cx="8.7" cy="127" rx="1.6" ry="37.4"/>
			<ellipse class="st52" cx="8.7" cy="127" rx="1.6" ry="37.1"/>
			<ellipse class="st52" cx="8.7" cy="127" rx="1.6" ry="36.9"/>
			<ellipse class="st53" cx="8.7" cy="127" rx="1.6" ry="36.6"/>
			<ellipse class="st53" cx="8.7" cy="127" rx="1.6" ry="36.4"/>
			<ellipse class="st54" cx="8.7" cy="127" rx="1.6" ry="36.1"/>
			<ellipse class="st54" cx="8.7" cy="127" rx="1.6" ry="35.9"/>
			<ellipse class="st55" cx="8.7" cy="127" rx="1.5" ry="35.6"/>
			<ellipse class="st55" cx="8.7" cy="127" rx="1.5" ry="35.4"/>
			<ellipse class="st56" cx="8.7" cy="127" rx="1.5" ry="35.2"/>
			<ellipse class="st56" cx="8.7" cy="127" rx="1.5" ry="34.9"/>
			<ellipse class="st57" cx="8.7" cy="127" rx="1.5" ry="34.7"/>
			<ellipse class="st57" cx="8.7" cy="127" rx="1.5" ry="34.4"/>
			<ellipse class="st58" cx="8.7" cy="127" rx="1.5" ry="34.2"/>
			<ellipse class="st58" cx="8.7" cy="127" rx="1.5" ry="33.9"/>
			<ellipse class="st59" cx="8.7" cy="127" rx="1.5" ry="33.7"/>
			<ellipse class="st59" cx="8.7" cy="127" rx="1.5" ry="33.4"/>
			<ellipse class="st60" cx="8.7" cy="127" rx="1.5" ry="33.2"/>
			<ellipse class="st60" cx="8.7" cy="127" rx="1.4" ry="32.9"/>
			<ellipse class="st61" cx="8.7" cy="127" rx="1.4" ry="32.7"/>
			<ellipse class="st61" cx="8.7" cy="127" rx="1.4" ry="32.4"/>
			<ellipse class="st62" cx="8.7" cy="127" rx="1.4" ry="32.2"/>
			<ellipse class="st62" cx="8.7" cy="127" rx="1.4" ry="32"/>
			<ellipse class="st63" cx="8.7" cy="127" rx="1.4" ry="31.7"/>
			<ellipse class="st63" cx="8.7" cy="127" rx="1.4" ry="31.5"/>
			<ellipse class="st64" cx="8.7" cy="127" rx="1.4" ry="31.2"/>
			<ellipse class="st64" cx="8.7" cy="127" rx="1.3" ry="31"/>
			<ellipse class="st65" cx="8.7" cy="127" rx="1.3" ry="30.7"/>
			<ellipse class="st65" cx="8.7" cy="127" rx="1.3" ry="30.5"/>
			<ellipse class="st66" cx="8.7" cy="127" rx="1.3" ry="30.2"/>
			<ellipse class="st66" cx="8.7" cy="127" rx="1.3" ry="30"/>
			<ellipse class="st67" cx="8.7" cy="127" rx="1.3" ry="29.8"/>
			<ellipse class="st67" cx="8.7" cy="127" rx="1.3" ry="29.5"/>
			<ellipse class="st68" cx="8.7" cy="127" rx="1.3" ry="29.3"/>
			<ellipse class="st68" cx="8.7" cy="127" rx="1.3" ry="29"/>
			<ellipse class="st69" cx="8.7" cy="127" rx="1.2" ry="28.8"/>
			<ellipse class="st69" cx="8.7" cy="127" rx="1.2" ry="28.5"/>
			<ellipse class="st70" cx="8.7" cy="127" rx="1.2" ry="28.3"/>
			<ellipse class="st70" cx="8.7" cy="127" rx="1.2" ry="28"/>
			<ellipse class="st71" cx="8.7" cy="127" rx="1.2" ry="27.8"/>
			<ellipse class="st71" cx="8.7" cy="127" rx="1.2" ry="27.5"/>
			<ellipse class="st72" cx="8.7" cy="127" rx="1.2" ry="27.3"/>
			<ellipse class="st72" cx="8.7" cy="127" rx="1.2" ry="27.1"/>
			<ellipse class="st73" cx="8.7" cy="127" rx="1.2" ry="26.8"/>
			<ellipse class="st73" cx="8.7" cy="127" rx="1.2" ry="26.6"/>
			<ellipse class="st74" cx="8.7" cy="127" rx="1.2" ry="26.3"/>
			<ellipse class="st74" cx="8.7" cy="127" rx="1.1" ry="26.1"/>
			<ellipse class="st75" cx="8.7" cy="127" rx="1.1" ry="25.8"/>
			<ellipse class="st75" cx="8.7" cy="127" rx="1.1" ry="25.6"/>
			<ellipse class="st76" cx="8.7" cy="127" rx="1.1" ry="25.3"/>
			<ellipse class="st76" cx="8.7" cy="127" rx="1.1" ry="25.1"/>
			<ellipse class="st77" cx="8.7" cy="127" rx="1.1" ry="24.8"/>
			<ellipse class="st77" cx="8.7" cy="127" rx="1.1" ry="24.6"/>
			<ellipse class="st78" cx="8.7" cy="127" rx="1.1" ry="24.4"/>
			<ellipse class="st78" cx="8.7" cy="127" rx="1" ry="24.1"/>
			<ellipse class="st79" cx="8.7" cy="127" rx="1" ry="23.9"/>
			<ellipse class="st79" cx="8.7" cy="127" rx="1" ry="23.6"/>
			<ellipse class="st80" cx="8.7" cy="127" rx="1" ry="23.4"/>
			<ellipse class="st80" cx="8.7" cy="127" rx="1" ry="23.1"/>
			<ellipse class="st81" cx="8.7" cy="127" rx="1" ry="22.9"/>
			<ellipse class="st81" cx="8.7" cy="127" rx="1" ry="22.6"/>
			<ellipse class="st82" cx="8.7" cy="127" rx="1" ry="22.4"/>
			<ellipse class="st82" cx="8.7" cy="127" rx="1" ry="22.1"/>
			<ellipse class="st83" cx="8.7" cy="127" rx="1" ry="21.9"/>
			<ellipse class="st83" cx="8.7" cy="127" rx="0.9" ry="21.6"/>
			<ellipse class="st84" cx="8.7" cy="127" rx="0.9" ry="21.4"/>
			<ellipse class="st84" cx="8.7" cy="127" rx="0.9" ry="21.2"/>
			<ellipse class="st85" cx="8.7" cy="127" rx="0.9" ry="20.9"/>
			<ellipse class="st85" cx="8.7" cy="127" rx="0.9" ry="20.7"/>
			<ellipse class="st86" cx="8.7" cy="127" rx="0.9" ry="20.4"/>
			<ellipse class="st86" cx="8.7" cy="127" rx="0.9" ry="20.2"/>
			<ellipse class="st87" cx="8.7" cy="127" rx="0.9" ry="19.9"/>
			<ellipse class="st87" cx="8.7" cy="127" rx="0.9" ry="19.7"/>
			<ellipse class="st88" cx="8.7" cy="127" rx="0.8" ry="19.4"/>
			<ellipse class="st88" cx="8.7" cy="127" rx="0.8" ry="19.2"/>
			<ellipse class="st89" cx="8.7" cy="127" rx="0.8" ry="18.9"/>
			<ellipse class="st89" cx="8.7" cy="127" rx="0.8" ry="18.7"/>
			<ellipse class="st90" cx="8.7" cy="127" rx="0.8" ry="18.5"/>
			<ellipse class="st90" cx="8.7" cy="127" rx="0.8" ry="18.2"/>
			<ellipse class="st91" cx="8.7" cy="127" rx="0.8" ry="18"/>
			<ellipse class="st91" cx="8.7" cy="127" rx="0.8" ry="17.7"/>
			<ellipse class="st92" cx="8.7" cy="127" rx="0.8" ry="17.5"/>
			<ellipse class="st92" cx="8.7" cy="127" rx="0.8" ry="17.2"/>
			<ellipse class="st93" cx="8.7" cy="127" rx="0.7" ry="17"/>
			<ellipse class="st93" cx="8.7" cy="127" rx="0.7" ry="16.8"/>
			<ellipse class="st94" cx="8.7" cy="127" rx="0.7" ry="16.5"/>
			<ellipse class="st94" cx="8.7" cy="127" rx="0.7" ry="16.3"/>
			<ellipse class="st95" cx="8.7" cy="127" rx="0.7" ry="16"/>
			<ellipse class="st95" cx="8.7" cy="127" rx="0.7" ry="15.8"/>
			<ellipse class="st96" cx="8.7" cy="127" rx="0.7" ry="15.5"/>
			<ellipse class="st96" cx="8.7" cy="127" rx="0.7" ry="15.3"/>
			<ellipse class="st97" cx="8.7" cy="127" rx="0.7" ry="15"/>
			<ellipse class="st97" cx="8.7" cy="127" rx="0.6" ry="14.8"/>
			<ellipse class="st98" cx="8.7" cy="127" rx="0.6" ry="14.5"/>
			<ellipse class="st98" cx="8.7" cy="127" rx="0.6" ry="14.3"/>
			<ellipse class="st99" cx="8.7" cy="127" rx="0.6" ry="14.1"/>
			<ellipse class="st99" cx="8.7" cy="127" rx="0.6" ry="13.8"/>
			<ellipse class="st100" cx="8.7" cy="127" rx="0.6" ry="13.6"/>
			<ellipse class="st100" cx="8.7" cy="127" rx="0.6" ry="13.3"/>
			<ellipse class="st101" cx="8.7" cy="127" rx="0.6" ry="13.1"/>
			<ellipse class="st101" cx="8.7" cy="127" rx="0.6" ry="12.8"/>
			<ellipse class="st102" cx="8.7" cy="127" rx="0.5" ry="12.6"/>
			<ellipse class="st102" cx="8.7" cy="127" rx="0.5" ry="12.3"/>
			
				<image style="overflow:visible;enable-background:new    ;" width="424" height="418" xlink:href="70003BC9.png"  transform="matrix(0.24 0 0 0.24 -28.38 -20.68)">
			</image>
			
				<image style="overflow:visible;enable-background:new    ;" width="423" height="418" xlink:href="70003BCB.png"  transform="matrix(0.24 0 0 0.24 187.14 174.44)">
			</image>
			
				<image style="overflow:visible;enable-background:new    ;" width="463" height="310" xlink:href="70003BCE.png"  transform="matrix(0.24 0 0 0.24 74.58 -20.68)">
			</image>
			
				<image style="overflow:visible;enable-background:new    ;" width="463" height="310" xlink:href="70003BCF.png"  transform="matrix(0.24 0 0 0.24 74.58 200.36)">
			</image>
		</g>
	</g>
</g>
</svg>
